M48
;DRILL file {Pcbnew (2012-apr-16-27)-stable} date Friday 28 March 2014 02:30:38 PM IST
;FORMAT={-:-/ absolute / inch / decimal}
FMAT,2
INCH,TZ
T1C0.032
T2C0.039
%
G90
G05
M72
T1
X5.700Y3.750
X5.700Y4.050
X5.750Y4.150
X5.750Y4.250
X5.800Y3.750
X5.800Y4.050
X5.900Y3.750
X5.900Y4.050
X6.000Y3.750
X6.000Y4.050
X6.000Y4.150
X6.000Y4.250
X6.100Y3.750
X6.100Y4.050
X6.250Y3.800
X6.250Y3.900
X6.250Y4.000
X6.250Y4.100
X6.250Y4.250
X6.350Y3.800
X6.350Y3.900
X6.350Y4.000
X6.350Y4.100
X6.350Y4.250
X6.450Y4.250
X6.650Y3.800
X6.650Y3.900
X6.650Y4.000
X6.650Y4.100
X6.750Y3.800
X6.750Y3.900
X6.750Y4.000
X6.750Y4.100
X6.750Y4.250
T2
X5.430Y3.705
X5.430Y4.295
X5.545Y3.830
X5.545Y3.940
X5.545Y4.055
X5.545Y4.170
T0
M30
