<?xml version="1.0" standalone="no"?>
<!DOCTYPE svg PUBLIC "-//W3C//DTD SVG 1.1//EN" 
"http://www.w3.org/Graphics/SVG/1.1/DTD/svg11.dtd"> 
<svg
  xmlns="http://www.w3.org/2000/svg"
  version="1.1"
  width="11.7in" height="8.267in" viewBox="0 0 117000 82670 "
>
  <title>SVG Picture created as new-anuduino-board-Back.svg </title>
  <desc>Picture generated by wxSVG v0101 </desc>
  <g style="fill:black; stroke:black; stroke-width:1">
</g>
<g style="fill:#000000; fill-opacity:0.0; 
  stroke:#000000; stroke-linecap:round; stroke-linejoin:round; stroke-opacity:1.0; stroke-opacity:1.0; stroke-width:150" 
   transform="translate(0 0) scale(1 1)">
<path d="M53350 44150 L53350 35850" /> 
<path d="M53350 35750 L53350 35850" /> 
<path d="M56650 35750 L53350 35750" /> 
<path d="M68500 44150 L53350 44150" /> 
<path d="M68500 43950 L68500 44150" /> 
<path d="M68500 35750 L68500 43950" /> 
<path d="M68200 35750 L68500 35750" /> 
<path d="M56650 35750 L68200 35750" /> 
</g>
<g style="fill:#000000; fill-opacity:0.0; 
  stroke:#000000; stroke-linecap:round; stroke-linejoin:round; stroke-opacity:1.0; stroke-opacity:1.0; stroke-width:434" 
   transform="translate(0 0) scale(1 1)">
<path d="M62500 42500 L62500 41000" /> 
<path d="M60000 42500 L62500 42500" /> 
<path d="M57500 41500 L57500 41000" /> 
<path d="M57500 41000 L58000 40500" /> 
<path d="M55450 41700 L55450 41950" /> 
<path d="M59000 43500 L60000 42500" /> 
<path d="M57000 43500 L59000 43500" /> 
<path d="M55450 41950 L57000 43500" /> 
<path d="M62500 41000 L63500 41000" /> 
<path d="M58000 40500 L57000 40500" /> 
<path d="M57000 40500 L56650 40500" /> 
<path d="M56650 40500 L55450 41700" /> 
<path d="M63500 42500 L64500 42500" /> 
<path d="M67500 39000 L66500 39000" /> 
<path d="M66500 40000 L67500 40000" /> 
<path d="M62500 38000 L63500 38000" /> 
<path d="M62500 40000 L63500 40000" /> 
<path d="M62500 40000 L61500 40000" /> 
<path d="M61500 40000 L61000 40500" /> 
<path d="M55825 40175 L57875 38125" /> 
<path d="M59000 37500 L60000 37500" /> 
<path d="M58000 37500 L59000 37500" /> 
<path d="M57875 38125 L58000 37500" /> 
<path d="M55450 40550 L55825 40175" /> 
<path d="M57000 37500 L57000 38050" /> 
<path d="M55650 39400 L55450 39400" /> 
<path d="M60350 36850 L61000 37500" /> 
<path d="M57350 36850 L60350 36850" /> 
<path d="M57000 37500 L57000 37200" /> 
<path d="M57000 37200 L57350 36850" /> 
<path d="M57000 38050 L55650 39400" /> 
<path d="M59000 40500 L59000 39800" /> 
<path d="M60350 38450 L61700 38450" /> 
<path d="M59000 39800 L60350 38450" /> 
<path d="M61950 37000 L62500 37000" /> 
<path d="M61700 37250 L61950 37000" /> 
<path d="M66500 38000 L66500 37500" /> 
<path d="M66500 37500 L66000 37000" /> 
<path d="M61700 38450 L61700 37250" /> 
<path d="M66000 37000 L62500 37000" /> 
<path d="M59000 41500 L59000 40500" /> 
<path d="M57500 42500 L58000 42500" /> 
<path d="M58000 42500 L59000 41500" /> 
<path d="M55450 37550 L56200 36250" /> 
<path d="M55450 38300 L55450 37550" /> 
<path d="M61700 36250 L62500 37000" /> 
<path d="M56200 36250 L61700 36250" /> 
<path d="M60000 41500 L59000 40500" /> 
<path d="M66500 38000 L67500 38000" /> 
<path d="M62500 39000 L61000 39000" /> 
<path d="M60000 40000 L60000 40500" /> 
<path d="M61000 39000 L60000 40000" /> 
<path d="M62500 39000 L63500 39000" /> 
<path d="M66500 41000 L67500 41000" /> 
<path d="M67500 42500 L67500 41000" /> 
</g>
<g style="fill:#000000; fill-opacity:0.0; 
  stroke:#000000; stroke-linecap:round; stroke-linejoin:round; stroke-opacity:1.0; stroke-opacity:1.0; stroke-width:100" 
   transform="translate(0 0) scale(1 1)">
<path d="M68175 43825 L68175 43825" /> 
<path d="M65025 43825 L68175 43825" /> 
<path d="M65025 42605 L65025 43825" /> 
<path d="M65025 42396 L65025 42605" /> 
<path d="M64945 42203 L65025 42396" /> 
<path d="M64798 42055 L64945 42203" /> 
<path d="M64605 41975 L64798 42055" /> 
<path d="M64396 41975 L64605 41975" /> 
<path d="M64256 42033 L64396 41975" /> 
<path d="M64019 42033 L64256 42033" /> 
<path d="M64019 41074 L64019 42033" /> 
<path d="M64008 40870 L64019 41074" /> 
<path d="M63952 40733 L64008 40870" /> 
<path d="M63861 40710 L63952 40733" /> 
<path d="M63571 41000 L63861 40710" /> 
<path d="M63861 41290 L63571 41000" /> 
<path d="M63952 41267 L63861 41290" /> 
<path d="M64019 41074 L63952 41267" /> 
<path d="M64019 42033 L64019 41074" /> 
<path d="M63853 42033 L64019 42033" /> 
<path d="M63829 42009 L63853 42033" /> 
<path d="M63790 41992 L63829 42009" /> 
<path d="M63790 41361 L63790 41992" /> 
<path d="M63500 41071 L63790 41361" /> 
<path d="M63429 41142 L63500 41071" /> 
<path d="M63429 41000 L63429 41142" /> 
<path d="M63139 40710 L63429 41000" /> 
<path d="M63048 40733 L63139 40710" /> 
<path d="M63003 40859 L63048 40733" /> 
<path d="M62952 40733 L63003 40859" /> 
<path d="M62861 40710 L62952 40733" /> 
<path d="M62571 41000 L62861 40710" /> 
<path d="M62861 41290 L62571 41000" /> 
<path d="M62952 41267 L62861 41290" /> 
<path d="M62996 41140 L62952 41267" /> 
<path d="M63048 41267 L62996 41140" /> 
<path d="M63139 41290 L63048 41267" /> 
<path d="M63429 41000 L63139 41290" /> 
<path d="M63429 41142 L63429 41000" /> 
<path d="M63210 41361 L63429 41142" /> 
<path d="M63233 41452 L63210 41361" /> 
<path d="M63426 41519 L63233 41452" /> 
<path d="M63630 41508 L63426 41519" /> 
<path d="M63767 41452 L63630 41508" /> 
<path d="M63790 41361 L63767 41452" /> 
<path d="M63790 41992 L63790 41361" /> 
<path d="M63616 41920 L63790 41992" /> 
<path d="M63385 41920 L63616 41920" /> 
<path d="M63172 42008 L63385 41920" /> 
<path d="M63009 42171 L63172 42008" /> 
<path d="M62996 42202 L63009 42171" /> 
<path d="M62900 42171 L62996 42202" /> 
<path d="M62829 42242 L62900 42171" /> 
<path d="M62829 42100 L62829 42242" /> 
<path d="M62798 42004 L62829 42100" /> 
<path d="M62790 42001 L62798 42004" /> 
<path d="M62790 41361 L62790 42001" /> 
<path d="M62500 41071 L62790 41361" /> 
<path d="M62429 41142 L62500 41071" /> 
<path d="M62429 41000 L62429 41142" /> 
<path d="M62139 40710 L62429 41000" /> 
<path d="M62048 40733 L62139 40710" /> 
<path d="M61981 40926 L62048 40733" /> 
<path d="M61992 41130 L61981 40926" /> 
<path d="M62048 41267 L61992 41130" /> 
<path d="M62139 41290 L62048 41267" /> 
<path d="M62429 41000 L62139 41290" /> 
<path d="M62429 41142 L62429 41000" /> 
<path d="M62210 41361 L62429 41142" /> 
<path d="M62233 41452 L62210 41361" /> 
<path d="M62426 41519 L62233 41452" /> 
<path d="M62630 41508 L62426 41519" /> 
<path d="M62767 41452 L62630 41508" /> 
<path d="M62790 41361 L62767 41452" /> 
<path d="M62790 42001 L62790 41361" /> 
<path d="M62586 41927 L62790 42001" /> 
<path d="M62361 41938 L62586 41927" /> 
<path d="M62202 42004 L62361 41938" /> 
<path d="M62171 42100 L62202 42004" /> 
<path d="M62500 42429 L62171 42100" /> 
<path d="M62829 42100 L62500 42429" /> 
<path d="M62829 42242 L62829 42100" /> 
<path d="M62571 42500 L62829 42242" /> 
<path d="M62900 42829 L62571 42500" /> 
<path d="M62995 42798 L62900 42829" /> 
<path d="M62996 42798 L62995 42798" /> 
<path d="M63008 42828 L62996 42798" /> 
<path d="M63171 42991 L63008 42828" /> 
<path d="M63384 43080 L63171 42991" /> 
<path d="M63615 43080 L63384 43080" /> 
<path d="M63828 42992 L63615 43080" /> 
<path d="M63853 42967 L63828 42992" /> 
<path d="M64255 42967 L63853 42967" /> 
<path d="M64395 43025 L64255 42967" /> 
<path d="M64604 43025 L64395 43025" /> 
<path d="M64797 42945 L64604 43025" /> 
<path d="M64945 42798 L64797 42945" /> 
<path d="M65025 42605 L64945 42798" /> 
<path d="M65025 43825 L65025 42605" /> 
<path d="M62829 43825 L65025 43825" /> 
<path d="M62829 42900 L62829 43825" /> 
<path d="M62500 42571 L62829 42900" /> 
<path d="M62429 42642 L62500 42571" /> 
<path d="M62429 42500 L62429 42642" /> 
<path d="M62100 42171 L62429 42500" /> 
<path d="M62004 42202 L62100 42171" /> 
<path d="M61927 42414 L62004 42202" /> 
<path d="M61938 42639 L61927 42414" /> 
<path d="M62004 42798 L61938 42639" /> 
<path d="M62100 42829 L62004 42798" /> 
<path d="M62429 42500 L62100 42829" /> 
<path d="M62429 42642 L62429 42500" /> 
<path d="M62171 42900 L62429 42642" /> 
<path d="M62202 42996 L62171 42900" /> 
<path d="M62414 43073 L62202 42996" /> 
<path d="M62639 43062 L62414 43073" /> 
<path d="M62798 42996 L62639 43062" /> 
<path d="M62829 42900 L62798 42996" /> 
<path d="M62829 43825 L62829 42900" /> 
<path d="M60519 43825 L62829 43825" /> 
<path d="M60519 42574 L60519 43825" /> 
<path d="M60508 42370 L60519 42574" /> 
<path d="M60452 42233 L60508 42370" /> 
<path d="M60361 42210 L60452 42233" /> 
<path d="M60071 42500 L60361 42210" /> 
<path d="M60361 42790 L60071 42500" /> 
<path d="M60452 42767 L60361 42790" /> 
<path d="M60519 42574 L60452 42767" /> 
<path d="M60519 43825 L60519 42574" /> 
<path d="M60290 43825 L60519 43825" /> 
<path d="M60290 42861 L60290 43825" /> 
<path d="M60000 42571 L60290 42861" /> 
<path d="M59929 42642 L60000 42571" /> 
<path d="M59929 42500 L59929 42642" /> 
<path d="M59639 42210 L59929 42500" /> 
<path d="M59548 42233 L59639 42210" /> 
<path d="M59481 42426 L59548 42233" /> 
<path d="M59492 42630 L59481 42426" /> 
<path d="M59548 42767 L59492 42630" /> 
<path d="M59639 42790 L59548 42767" /> 
<path d="M59929 42500 L59639 42790" /> 
<path d="M59929 42642 L59929 42500" /> 
<path d="M59710 42861 L59929 42642" /> 
<path d="M59733 42952 L59710 42861" /> 
<path d="M59926 43019 L59733 42952" /> 
<path d="M60130 43008 L59926 43019" /> 
<path d="M60267 42952 L60130 43008" /> 
<path d="M60290 42861 L60267 42952" /> 
<path d="M60290 43825 L60290 42861" /> 
<path d="M55990 43825 L60290 43825" /> 
<path d="M55990 41778 L55990 43825" /> 
<path d="M55978 41566 L55990 41778" /> 
<path d="M55918 41421 L55978 41566" /> 
<path d="M55825 41396 L55918 41421" /> 
<path d="M55754 41467 L55825 41396" /> 
<path d="M55754 41325 L55754 41467" /> 
<path d="M55729 41232 L55754 41325" /> 
<path d="M55528 41160 L55729 41232" /> 
<path d="M55316 41172 L55528 41160" /> 
<path d="M55171 41232 L55316 41172" /> 
<path d="M55146 41325 L55171 41232" /> 
<path d="M55450 41629 L55146 41325" /> 
<path d="M55754 41325 L55450 41629" /> 
<path d="M55754 41467 L55754 41325" /> 
<path d="M55521 41700 L55754 41467" /> 
<path d="M55825 42004 L55521 41700" /> 
<path d="M55918 41979 L55825 42004" /> 
<path d="M55990 41778 L55918 41979" /> 
<path d="M55990 43825 L55990 41778" /> 
<path d="M55754 43825 L55990 43825" /> 
<path d="M55754 42075 L55754 43825" /> 
<path d="M55450 41771 L55754 42075" /> 
<path d="M55379 41842 L55450 41771" /> 
<path d="M55379 41700 L55379 41842" /> 
<path d="M55075 41396 L55379 41700" /> 
<path d="M54982 41421 L55075 41396" /> 
<path d="M54910 41622 L54982 41421" /> 
<path d="M54922 41834 L54910 41622" /> 
<path d="M54982 41979 L54922 41834" /> 
<path d="M55075 42004 L54982 41979" /> 
<path d="M55379 41700 L55075 42004" /> 
<path d="M55379 41842 L55379 41700" /> 
<path d="M55146 42075 L55379 41842" /> 
<path d="M55171 42168 L55146 42075" /> 
<path d="M55372 42240 L55171 42168" /> 
<path d="M55584 42228 L55372 42240" /> 
<path d="M55729 42168 L55584 42228" /> 
<path d="M55754 42075 L55729 42168" /> 
<path d="M55754 43825 L55754 42075" /> 
<path d="M53675 43825 L55754 43825" /> 
<path d="M53675 43557 L53675 43825" /> 
<path d="M53758 43592 L53675 43557" /> 
<path d="M53857 43592 L53758 43592" /> 
<path d="M54841 43592 L53857 43592" /> 
<path d="M54933 43554 L54841 43592" /> 
<path d="M55003 43484 L54933 43554" /> 
<path d="M55041 43393 L55003 43484" /> 
<path d="M55041 43294 L55041 43393" /> 
<path d="M55041 42508 L55041 43294" /> 
<path d="M55003 42416 L55041 42508" /> 
<path d="M54933 42346 L55003 42416" /> 
<path d="M54842 42308 L54933 42346" /> 
<path d="M54743 42308 L54842 42308" /> 
<path d="M53759 42308 L54743 42308" /> 
<path d="M53675 42342 L53759 42308" /> 
<path d="M53675 37657 L53675 42342" /> 
<path d="M53758 37692 L53675 37657" /> 
<path d="M53857 37692 L53758 37692" /> 
<path d="M54841 37692 L53857 37692" /> 
<path d="M54933 37654 L54841 37692" /> 
<path d="M54983 37604 L54933 37654" /> 
<path d="M54983 38006 L54983 37604" /> 
<path d="M54906 38192 L54983 38006" /> 
<path d="M54906 38408 L54906 38192" /> 
<path d="M54989 38608 L54906 38408" /> 
<path d="M55142 38761 L54989 38608" /> 
<path d="M55342 38844 L55142 38761" /> 
<path d="M55546 38844 L55342 38844" /> 
<path d="M55534 38856 L55546 38844" /> 
<path d="M55342 38856 L55534 38856" /> 
<path d="M55142 38939 L55342 38856" /> 
<path d="M54989 39092 L55142 38939" /> 
<path d="M54906 39292 L54989 39092" /> 
<path d="M54906 39508 L54906 39292" /> 
<path d="M54989 39708 L54906 39508" /> 
<path d="M55142 39861 L54989 39708" /> 
<path d="M55342 39944 L55142 39861" /> 
<path d="M55396 39944 L55342 39944" /> 
<path d="M55328 40011 L55396 39944" /> 
<path d="M55142 40089 L55328 40011" /> 
<path d="M54989 40242 L55142 40089" /> 
<path d="M54906 40442 L54989 40242" /> 
<path d="M54906 40658 L54906 40442" /> 
<path d="M54989 40858 L54906 40658" /> 
<path d="M55142 41011 L54989 40858" /> 
<path d="M55342 41094 L55142 41011" /> 
<path d="M55558 41094 L55342 41094" /> 
<path d="M55758 41011 L55558 41094" /> 
<path d="M55911 40858 L55758 41011" /> 
<path d="M55988 40671 L55911 40858" /> 
<path d="M56155 40505 L55988 40671" /> 
<path d="M58205 38455 L56155 40505" /> 
<path d="M58229 38418 L58205 38455" /> 
<path d="M58263 38385 L58229 38418" /> 
<path d="M58282 38338 L58263 38385" /> 
<path d="M58306 38303 L58282 38338" /> 
<path d="M58314 38261 L58306 38303" /> 
<path d="M58333 38217 L58314 38261" /> 
<path d="M58375 38002 L58333 38217" /> 
<path d="M58416 37986 L58375 38002" /> 
<path d="M58435 37967 L58416 37986" /> 
<path d="M58755 37967 L58435 37967" /> 
<path d="M58895 38025 L58755 37967" /> 
<path d="M59104 38025 L58895 38025" /> 
<path d="M59243 37967 L59104 38025" /> 
<path d="M59755 37967 L59243 37967" /> 
<path d="M59895 38025 L59755 37967" /> 
<path d="M60104 38025 L59895 38025" /> 
<path d="M60297 37945 L60104 38025" /> 
<path d="M60445 37798 L60297 37945" /> 
<path d="M60500 37664 L60445 37798" /> 
<path d="M60555 37797 L60500 37664" /> 
<path d="M60702 37945 L60555 37797" /> 
<path d="M60793 37983 L60702 37945" /> 
<path d="M60350 37983 L60793 37983" /> 
<path d="M60171 38019 L60350 37983" /> 
<path d="M60020 38120 L60171 38019" /> 
<path d="M58670 39470 L60020 38120" /> 
<path d="M58569 39621 L58670 39470" /> 
<path d="M58533 39800 L58569 39621" /> 
<path d="M58533 40255 L58533 39800" /> 
<path d="M58496 40342 L58533 40255" /> 
<path d="M58452 40233 L58496 40342" /> 
<path d="M58361 40210 L58452 40233" /> 
<path d="M58290 40281 L58361 40210" /> 
<path d="M58290 40139 L58290 40281" /> 
<path d="M58267 40048 L58290 40139" /> 
<path d="M58074 39981 L58267 40048" /> 
<path d="M57870 39992 L58074 39981" /> 
<path d="M57733 40048 L57870 39992" /> 
<path d="M57710 40139 L57733 40048" /> 
<path d="M58000 40429 L57710 40139" /> 
<path d="M58290 40139 L58000 40429" /> 
<path d="M58290 40281 L58290 40139" /> 
<path d="M58071 40500 L58290 40281" /> 
<path d="M58361 40790 L58071 40500" /> 
<path d="M58452 40767 L58361 40790" /> 
<path d="M58493 40648 L58452 40767" /> 
<path d="M58533 40743 L58493 40648" /> 
<path d="M58533 41307 L58533 40743" /> 
<path d="M58290 41549 L58533 41307" /> 
<path d="M58290 40861 L58290 41549" /> 
<path d="M58000 40571 L58290 40861" /> 
<path d="M57929 40642 L58000 40571" /> 
<path d="M57929 40500 L57929 40642" /> 
<path d="M57639 40210 L57929 40500" /> 
<path d="M57548 40233 L57639 40210" /> 
<path d="M57503 40359 L57548 40233" /> 
<path d="M57452 40233 L57503 40359" /> 
<path d="M57361 40210 L57452 40233" /> 
<path d="M57290 40281 L57361 40210" /> 
<path d="M57290 40139 L57290 40281" /> 
<path d="M57267 40048 L57290 40139" /> 
<path d="M57074 39981 L57267 40048" /> 
<path d="M56870 39992 L57074 39981" /> 
<path d="M56733 40048 L56870 39992" /> 
<path d="M56710 40139 L56733 40048" /> 
<path d="M57000 40429 L56710 40139" /> 
<path d="M57290 40139 L57000 40429" /> 
<path d="M57290 40281 L57290 40139" /> 
<path d="M57071 40500 L57290 40281" /> 
<path d="M57361 40790 L57071 40500" /> 
<path d="M57452 40767 L57361 40790" /> 
<path d="M57496 40640 L57452 40767" /> 
<path d="M57548 40767 L57496 40640" /> 
<path d="M57639 40790 L57548 40767" /> 
<path d="M57929 40500 L57639 40790" /> 
<path d="M57929 40642 L57929 40500" /> 
<path d="M57710 40861 L57929 40642" /> 
<path d="M57733 40952 L57710 40861" /> 
<path d="M57926 41019 L57733 40952" /> 
<path d="M58130 41008 L57926 41019" /> 
<path d="M58267 40952 L58130 41008" /> 
<path d="M58290 40861 L58267 40952" /> 
<path d="M58290 41549 L58290 40861" /> 
<path d="M58019 41820 L58290 41549" /> 
<path d="M58019 41574 L58019 41820" /> 
<path d="M58008 41370 L58019 41574" /> 
<path d="M57952 41233 L58008 41370" /> 
<path d="M57861 41210 L57952 41233" /> 
<path d="M57790 41281 L57861 41210" /> 
<path d="M57790 41139 L57790 41281" /> 
<path d="M57767 41048 L57790 41139" /> 
<path d="M57574 40981 L57767 41048" /> 
<path d="M57370 40992 L57574 40981" /> 
<path d="M57290 41024 L57370 40992" /> 
<path d="M57290 40861 L57290 41024" /> 
<path d="M57000 40571 L57290 40861" /> 
<path d="M56929 40642 L57000 40571" /> 
<path d="M56929 40500 L56929 40642" /> 
<path d="M56639 40210 L56929 40500" /> 
<path d="M56548 40233 L56639 40210" /> 
<path d="M56481 40426 L56548 40233" /> 
<path d="M56492 40630 L56481 40426" /> 
<path d="M56548 40767 L56492 40630" /> 
<path d="M56639 40790 L56548 40767" /> 
<path d="M56929 40500 L56639 40790" /> 
<path d="M56929 40642 L56929 40500" /> 
<path d="M56710 40861 L56929 40642" /> 
<path d="M56733 40952 L56710 40861" /> 
<path d="M56926 41019 L56733 40952" /> 
<path d="M57130 41008 L56926 41019" /> 
<path d="M57267 40952 L57130 41008" /> 
<path d="M57290 40861 L57267 40952" /> 
<path d="M57290 41024 L57290 40861" /> 
<path d="M57233 41048 L57290 41024" /> 
<path d="M57210 41139 L57233 41048" /> 
<path d="M57500 41429 L57210 41139" /> 
<path d="M57790 41139 L57500 41429" /> 
<path d="M57790 41281 L57790 41139" /> 
<path d="M57571 41500 L57790 41281" /> 
<path d="M57861 41790 L57571 41500" /> 
<path d="M57952 41767 L57861 41790" /> 
<path d="M58019 41574 L57952 41767" /> 
<path d="M58019 41820 L58019 41574" /> 
<path d="M57852 41987 L58019 41820" /> 
<path d="M57825 41976 L57852 41987" /> 
<path d="M57726 41976 L57825 41976" /> 
<path d="M57708 41976 L57726 41976" /> 
<path d="M57767 41952 L57708 41976" /> 
<path d="M57790 41861 L57767 41952" /> 
<path d="M57500 41571 L57790 41861" /> 
<path d="M57429 41642 L57500 41571" /> 
<path d="M57429 41500 L57429 41642" /> 
<path d="M57139 41210 L57429 41500" /> 
<path d="M57048 41233 L57139 41210" /> 
<path d="M56981 41426 L57048 41233" /> 
<path d="M56992 41630 L56981 41426" /> 
<path d="M57048 41767 L56992 41630" /> 
<path d="M57139 41790 L57048 41767" /> 
<path d="M57429 41500 L57139 41790" /> 
<path d="M57429 41642 L57429 41500" /> 
<path d="M57210 41861 L57429 41642" /> 
<path d="M57233 41952 L57210 41861" /> 
<path d="M57302 41976 L57233 41952" /> 
<path d="M57176 41976 L57302 41976" /> 
<path d="M57084 42014 L57176 41976" /> 
<path d="M57014 42084 L57084 42014" /> 
<path d="M56976 42175 L57014 42084" /> 
<path d="M56976 42274 L56976 42175" /> 
<path d="M56976 42824 L56976 42274" /> 
<path d="M57014 42916 L56976 42824" /> 
<path d="M57084 42986 L57014 42916" /> 
<path d="M57175 43024 L57084 42986" /> 
<path d="M57274 43024 L57175 43024" /> 
<path d="M57824 43024 L57274 43024" /> 
<path d="M57916 42986 L57824 43024" /> 
<path d="M57935 42967 L57916 42986" /> 
<path d="M58000 42967 L57935 42967" /> 
<path d="M58178 42931 L58000 42967" /> 
<path d="M58179 42931 L58178 42931" /> 
<path d="M58330 42830 L58179 42931" /> 
<path d="M59330 41830 L58330 42830" /> 
<path d="M59431 41679 L59330 41830" /> 
<path d="M59431 41678 L59431 41679" /> 
<path d="M59445 41605 L59431 41678" /> 
<path d="M59476 41636 L59445 41605" /> 
<path d="M59476 41824 L59476 41636" /> 
<path d="M59514 41916 L59476 41824" /> 
<path d="M59584 41986 L59514 41916" /> 
<path d="M59675 42024 L59584 41986" /> 
<path d="M59774 42024 L59675 42024" /> 
<path d="M59791 42024 L59774 42024" /> 
<path d="M59733 42048 L59791 42024" /> 
<path d="M59710 42139 L59733 42048" /> 
<path d="M60000 42429 L59710 42139" /> 
<path d="M60290 42139 L60000 42429" /> 
<path d="M60267 42048 L60290 42139" /> 
<path d="M60197 42024 L60267 42048" /> 
<path d="M60324 42024 L60197 42024" /> 
<path d="M60416 41986 L60324 42024" /> 
<path d="M60486 41916 L60416 41986" /> 
<path d="M60524 41825 L60486 41916" /> 
<path d="M60524 41726 L60524 41825" /> 
<path d="M60524 41176 L60524 41726" /> 
<path d="M60486 41084 L60524 41176" /> 
<path d="M60416 41014 L60486 41084" /> 
<path d="M60325 40976 L60416 41014" /> 
<path d="M60226 40976 L60325 40976" /> 
<path d="M60222 40976 L60226 40976" /> 
<path d="M60297 40945 L60222 40976" /> 
<path d="M60445 40798 L60297 40945" /> 
<path d="M60500 40664 L60445 40798" /> 
<path d="M60555 40797 L60500 40664" /> 
<path d="M60702 40945 L60555 40797" /> 
<path d="M60895 41025 L60702 40945" /> 
<path d="M61104 41025 L60895 41025" /> 
<path d="M61297 40945 L61104 41025" /> 
<path d="M61445 40798 L61297 40945" /> 
<path d="M61503 40656 L61445 40798" /> 
<path d="M61693 40467 L61503 40656" /> 
<path d="M62255 40467 L61693 40467" /> 
<path d="M62342 40503 L62255 40467" /> 
<path d="M62233 40548 L62342 40503" /> 
<path d="M62210 40639 L62233 40548" /> 
<path d="M62500 40929 L62210 40639" /> 
<path d="M62790 40639 L62500 40929" /> 
<path d="M62767 40548 L62790 40639" /> 
<path d="M62648 40506 L62767 40548" /> 
<path d="M62743 40467 L62648 40506" /> 
<path d="M63255 40467 L62743 40467" /> 
<path d="M63342 40503 L63255 40467" /> 
<path d="M63233 40548 L63342 40503" /> 
<path d="M63210 40639 L63233 40548" /> 
<path d="M63500 40929 L63210 40639" /> 
<path d="M63790 40639 L63500 40929" /> 
<path d="M63767 40548 L63790 40639" /> 
<path d="M63648 40506 L63767 40548" /> 
<path d="M63797 40445 L63648 40506" /> 
<path d="M63945 40298 L63797 40445" /> 
<path d="M64025 40105 L63945 40298" /> 
<path d="M64025 39896 L64025 40105" /> 
<path d="M63945 39703 L64025 39896" /> 
<path d="M63798 39555 L63945 39703" /> 
<path d="M63664 39499 L63798 39555" /> 
<path d="M63797 39445 L63664 39499" /> 
<path d="M63945 39298 L63797 39445" /> 
<path d="M64025 39105 L63945 39298" /> 
<path d="M64025 38896 L64025 39105" /> 
<path d="M63945 38703 L64025 38896" /> 
<path d="M63798 38555 L63945 38703" /> 
<path d="M63723 38524 L63798 38555" /> 
<path d="M63824 38524 L63723 38524" /> 
<path d="M63916 38486 L63824 38524" /> 
<path d="M63986 38416 L63916 38486" /> 
<path d="M64024 38325 L63986 38416" /> 
<path d="M64024 38226 L64024 38325" /> 
<path d="M64024 37676 L64024 38226" /> 
<path d="M63986 37584 L64024 37676" /> 
<path d="M63916 37514 L63986 37584" /> 
<path d="M63825 37476 L63916 37514" /> 
<path d="M63726 37476 L63825 37476" /> 
<path d="M63176 37476 L63726 37476" /> 
<path d="M63084 37514 L63176 37476" /> 
<path d="M63065 37533 L63084 37514" /> 
<path d="M62935 37533 L63065 37533" /> 
<path d="M62916 37514 L62935 37533" /> 
<path d="M62825 37476 L62916 37514" /> 
<path d="M62726 37476 L62825 37476" /> 
<path d="M62176 37476 L62726 37476" /> 
<path d="M62167 37479 L62176 37476" /> 
<path d="M62167 37467 L62167 37479" /> 
<path d="M62500 37467 L62167 37467" /> 
<path d="M62514 37467 L62500 37467" /> 
<path d="M65807 37467 L62514 37467" /> 
<path d="M66033 37693 L65807 37467" /> 
<path d="M66033 37755 L66033 37693" /> 
<path d="M65975 37895 L66033 37755" /> 
<path d="M65975 38104 L65975 37895" /> 
<path d="M66055 38297 L65975 38104" /> 
<path d="M66202 38445 L66055 38297" /> 
<path d="M66335 38500 L66202 38445" /> 
<path d="M66203 38555 L66335 38500" /> 
<path d="M66055 38702 L66203 38555" /> 
<path d="M65975 38895 L66055 38702" /> 
<path d="M65975 39104 L65975 38895" /> 
<path d="M66055 39297 L65975 39104" /> 
<path d="M66202 39445 L66055 39297" /> 
<path d="M66335 39500 L66202 39445" /> 
<path d="M66203 39555 L66335 39500" /> 
<path d="M66055 39702 L66203 39555" /> 
<path d="M65975 39895 L66055 39702" /> 
<path d="M65975 40104 L65975 39895" /> 
<path d="M66055 40297 L65975 40104" /> 
<path d="M66202 40445 L66055 40297" /> 
<path d="M66335 40500 L66202 40445" /> 
<path d="M66203 40555 L66335 40500" /> 
<path d="M66055 40702 L66203 40555" /> 
<path d="M65975 40895 L66055 40702" /> 
<path d="M65975 41104 L65975 40895" /> 
<path d="M66055 41297 L65975 41104" /> 
<path d="M66202 41445 L66055 41297" /> 
<path d="M66395 41525 L66202 41445" /> 
<path d="M66604 41525 L66395 41525" /> 
<path d="M66743 41467 L66604 41525" /> 
<path d="M67033 41467 L66743 41467" /> 
<path d="M67033 42255 L67033 41467" /> 
<path d="M66975 42395 L67033 42255" /> 
<path d="M66975 42604 L66975 42395" /> 
<path d="M67055 42797 L66975 42604" /> 
<path d="M67202 42945 L67055 42797" /> 
<path d="M67395 43025 L67202 42945" /> 
<path d="M67604 43025 L67395 43025" /> 
<path d="M67797 42945 L67604 43025" /> 
<path d="M67945 42798 L67797 42945" /> 
<path d="M68025 42605 L67945 42798" /> 
<path d="M68025 42396 L68025 42605" /> 
<path d="M67967 42256 L68025 42396" /> 
<path d="M67967 41435 L67967 42256" /> 
<path d="M67986 41416 L67967 41435" /> 
<path d="M68024 41325 L67986 41416" /> 
<path d="M68024 41226 L68024 41325" /> 
<path d="M68024 40676 L68024 41226" /> 
<path d="M67986 40584 L68024 40676" /> 
<path d="M67916 40514 L67986 40584" /> 
<path d="M67825 40476 L67916 40514" /> 
<path d="M67726 40476 L67825 40476" /> 
<path d="M67722 40476 L67726 40476" /> 
<path d="M67797 40445 L67722 40476" /> 
<path d="M67945 40298 L67797 40445" /> 
<path d="M68025 40105 L67945 40298" /> 
<path d="M68025 39896 L68025 40105" /> 
<path d="M67945 39703 L68025 39896" /> 
<path d="M67798 39555 L67945 39703" /> 
<path d="M67664 39499 L67798 39555" /> 
<path d="M67797 39445 L67664 39499" /> 
<path d="M67945 39298 L67797 39445" /> 
<path d="M68025 39105 L67945 39298" /> 
<path d="M68025 38896 L68025 39105" /> 
<path d="M67945 38703 L68025 38896" /> 
<path d="M67798 38555 L67945 38703" /> 
<path d="M67664 38499 L67798 38555" /> 
<path d="M67797 38445 L67664 38499" /> 
<path d="M67945 38298 L67797 38445" /> 
<path d="M68025 38105 L67945 38298" /> 
<path d="M68025 37896 L68025 38105" /> 
<path d="M67945 37703 L68025 37896" /> 
<path d="M67798 37555 L67945 37703" /> 
<path d="M67605 37475 L67798 37555" /> 
<path d="M67396 37475 L67605 37475" /> 
<path d="M67256 37533 L67396 37475" /> 
<path d="M66967 37533 L67256 37533" /> 
<path d="M66967 37500 L66967 37533" /> 
<path d="M66931 37322 L66967 37500" /> 
<path d="M66931 37321 L66931 37322" /> 
<path d="M66830 37170 L66931 37321" /> 
<path d="M66330 36670 L66830 37170" /> 
<path d="M66179 36569 L66330 36670" /> 
<path d="M66000 36533 L66179 36569" /> 
<path d="M62683 36533 L66000 36533" /> 
<path d="M62195 36075 L62683 36533" /> 
<path d="M68175 36075 L62195 36075" /> 
<path d="M68175 43825 L68175 36075" /> 
</g>
<g style="fill:#000000; fill-opacity:1.0; 
  stroke:#000000; stroke-linecap:round; stroke-linejoin:round; stroke-opacity:1.0; stroke-opacity:1.0; stroke-width:0" 
   transform="translate(0 0) scale(1 1)">
<polygon style="fill-rule:evenodd; " 
points="64945,42203
64798,42055
64605,41975
64396,41975
64256,42033
64019,42033
64019,41074
64008,40870
63952,40733
63861,40710
63571,41000
63861,41290
63952,41267
64019,41074
64019,42033
63853,42033
63829,42009
63790,41992
63790,41361
63500,41071
63429,41142
63429,41000
63139,40710
63048,40733
63003,40859
62952,40733
62861,40710
62571,41000
62861,41290
62952,41267
62996,41140
63048,41267
63139,41290
63429,41000
63429,41142
63210,41361
63233,41452
63426,41519
63630,41508
63767,41452
63790,41361
63790,41992
63616,41920
63385,41920
63172,42008
63009,42171
62996,42202
62900,42171
62829,42242
62829,42100
62798,42004
62790,42001
62790,41361
62500,41071
62429,41142
62429,41000
62139,40710
62048,40733
61981,40926
61992,41130
62048,41267
62139,41290
62429,41000
62429,41142
62210,41361
62233,41452
62426,41519
62630,41508
62767,41452
62790,41361
62790,42001
62586,41927
62361,41938
62202,42004
62171,42100
62500,42429
62829,42100
62829,42242
62571,42500
62900,42829
62995,42798
62996,42798
63008,42828
63171,42991
63384,43080
63615,43080
63828,42992
63853,42967
64255,42967
64395,43025
64604,43025
64797,42945
64945,42798
65025,42605
65025,43825
62829,43825
62829,42900
62500,42571
62429,42642
62429,42500
62100,42171
62004,42202
61927,42414
61938,42639
62004,42798
62100,42829
62429,42500
62429,42642
62171,42900
62202,42996
62414,43073
62639,43062
62798,42996
62829,42900
62829,43825
60519,43825
60519,42574
60508,42370
60452,42233
60361,42210
60071,42500
60361,42790
60452,42767
60519,42574
60519,43825
60290,43825
60290,42861
60000,42571
59929,42642
59929,42500
59639,42210
59548,42233
59481,42426
59492,42630
59548,42767
59639,42790
59929,42500
59929,42642
59710,42861
59733,42952
59926,43019
60130,43008
60267,42952
60290,42861
60290,43825
55990,43825
55990,41778
55978,41566
55918,41421
55825,41396
55754,41467
55754,41325
55729,41232
55528,41160
55316,41172
55171,41232
55146,41325
55450,41629
55754,41325
55754,41467
55521,41700
55825,42004
55918,41979
55990,41778
55990,43825
55754,43825
55754,42075
55450,41771
55379,41842
55379,41700
55075,41396
54982,41421
54910,41622
54922,41834
54982,41979
55075,42004
55379,41700
55379,41842
55146,42075
55171,42168
55372,42240
55584,42228
55729,42168
55754,42075
55754,43825
53675,43825
53675,43557
53758,43592
53857,43592
54841,43592
54933,43554
55003,43484
55041,43393
55041,43294
55041,42508
55003,42416
54933,42346
54842,42308
54743,42308
53759,42308
53675,42342
53675,37657
53758,37692
53857,37692
54841,37692
54933,37654
54983,37604
54983,38006
54906,38192
54906,38408
54989,38608
55142,38761
55342,38844
55546,38844
55534,38856
55342,38856
55142,38939
54989,39092
54906,39292
54906,39508
54989,39708
55142,39861
55342,39944
55396,39944
55328,40011
55142,40089
54989,40242
54906,40442
54906,40658
54989,40858
55142,41011
55342,41094
55558,41094
55758,41011
55911,40858
55988,40671
56155,40505
58205,38455
58229,38418
58263,38385
58282,38338
58306,38303
58314,38261
58333,38217
58375,38002
58416,37986
58435,37967
58755,37967
58895,38025
59104,38025
59243,37967
59755,37967
59895,38025
60104,38025
60297,37945
60445,37798
60500,37664
60555,37797
60702,37945
60793,37983
60350,37983
60171,38019
60020,38120
58670,39470
58569,39621
58533,39800
58533,40255
58496,40342
58452,40233
58361,40210
58290,40281
58290,40139
58267,40048
58074,39981
57870,39992
57733,40048
57710,40139
58000,40429
58290,40139
58290,40281
58071,40500
58361,40790
58452,40767
58493,40648
58533,40743
58533,41307
58290,41549
58290,40861
58000,40571
57929,40642
57929,40500
57639,40210
57548,40233
57503,40359
57452,40233
57361,40210
57290,40281
57290,40139
57267,40048
57074,39981
56870,39992
56733,40048
56710,40139
57000,40429
57290,40139
57290,40281
57071,40500
57361,40790
57452,40767
57496,40640
57548,40767
57639,40790
57929,40500
57929,40642
57710,40861
57733,40952
57926,41019
58130,41008
58267,40952
58290,40861
58290,41549
58019,41820
58019,41574
58008,41370
57952,41233
57861,41210
57790,41281
57790,41139
57767,41048
57574,40981
57370,40992
57290,41024
57290,40861
57000,40571
56929,40642
56929,40500
56639,40210
56548,40233
56481,40426
56492,40630
56548,40767
56639,40790
56929,40500
56929,40642
56710,40861
56733,40952
56926,41019
57130,41008
57267,40952
57290,40861
57290,41024
57233,41048
57210,41139
57500,41429
57790,41139
57790,41281
57571,41500
57861,41790
57952,41767
58019,41574
58019,41820
57852,41987
57825,41976
57726,41976
57708,41976
57767,41952
57790,41861
57500,41571
57429,41642
57429,41500
57139,41210
57048,41233
56981,41426
56992,41630
57048,41767
57139,41790
57429,41500
57429,41642
57210,41861
57233,41952
57302,41976
57176,41976
57084,42014
57014,42084
56976,42175
56976,42274
56976,42824
57014,42916
57084,42986
57175,43024
57274,43024
57824,43024
57916,42986
57935,42967
58000,42967
58178,42931
58179,42931
58330,42830
59330,41830
59431,41679
59431,41678
59445,41605
59476,41636
59476,41824
59514,41916
59584,41986
59675,42024
59774,42024
59791,42024
59733,42048
59710,42139
60000,42429
60290,42139
60267,42048
60197,42024
60324,42024
60416,41986
60486,41916
60524,41825
60524,41726
60524,41176
60486,41084
60416,41014
60325,40976
60226,40976
60222,40976
60297,40945
60445,40798
60500,40664
60555,40797
60702,40945
60895,41025
61104,41025
61297,40945
61445,40798
61503,40656
61693,40467
62255,40467
62342,40503
62233,40548
62210,40639
62500,40929
62790,40639
62767,40548
62648,40506
62743,40467
63255,40467
63342,40503
63233,40548
63210,40639
63500,40929
63790,40639
63767,40548
63648,40506
63797,40445
63945,40298
64025,40105
64025,39896
63945,39703
63798,39555
63664,39499
63797,39445
63945,39298
64025,39105
64025,38896
63945,38703
63798,38555
63723,38524
63824,38524
63916,38486
63986,38416
64024,38325
64024,38226
64024,37676
63986,37584
63916,37514
63825,37476
63726,37476
63176,37476
63084,37514
63065,37533
62935,37533
62916,37514
62825,37476
62726,37476
62176,37476
62167,37479
62167,37467
62500,37467
62514,37467
65807,37467
66033,37693
66033,37755
65975,37895
65975,38104
66055,38297
66202,38445
66335,38500
66203,38555
66055,38702
65975,38895
65975,39104
66055,39297
66202,39445
66335,39500
66203,39555
66055,39702
65975,39895
65975,40104
66055,40297
66202,40445
66335,40500
66203,40555
66055,40702
65975,40895
65975,41104
66055,41297
66202,41445
66395,41525
66604,41525
66743,41467
67033,41467
67033,42255
66975,42395
66975,42604
67055,42797
67202,42945
67395,43025
67604,43025
67797,42945
67945,42798
68025,42605
68025,42396
67967,42256
67967,41435
67986,41416
68024,41325
68024,41226
68024,40676
67986,40584
67916,40514
67825,40476
67726,40476
67722,40476
67797,40445
67945,40298
68025,40105
68025,39896
67945,39703
67798,39555
67664,39499
67797,39445
67945,39298
68025,39105
68025,38896
67945,38703
67798,38555
67664,38499
67797,38445
67945,38298
68025,38105
68025,37896
67945,37703
67798,37555
67605,37475
67396,37475
67256,37533
66967,37533
66967,37500
66931,37322
66931,37321
66830,37170
66330,36670
66179,36569
66000,36533
62683,36533
62195,36075
68175,36075
68175,43825
68175,43825
65025,43825
65025,42605
65025,42396
" /> 
<polygon style="fill-rule:evenodd; " 
points="62225,37725
62775,37725
62775,38275
62225,38275
" /> 
</g>
<g style="fill:#FFFFFF; fill-opacity:1.0; 
  stroke:#808000; stroke-linecap:round; stroke-linejoin:round; stroke-opacity:1.0; stroke-opacity:1.0; stroke-width:0" 
   transform="translate(0 0) scale(1 1)">
<ellipse cx="62500" cy="38000" rx="160" ry="160"  /> 
</g>
<g style="fill:#000000; fill-opacity:1.0; 
  stroke:#000000; stroke-linecap:round; stroke-linejoin:round; stroke-opacity:1.0; stroke-opacity:1.0; stroke-width:0" 
   transform="translate(0 0) scale(1 1)">
<ellipse cx="62500" cy="39000" rx="275" ry="275"  /> 
</g>
<g style="fill:#FFFFFF; fill-opacity:1.0; 
  stroke:#808000; stroke-linecap:round; stroke-linejoin:round; stroke-opacity:1.0; stroke-opacity:1.0; stroke-width:0" 
   transform="translate(0 0) scale(1 1)">
<ellipse cx="62500" cy="39000" rx="160" ry="160"  /> 
</g>
<g style="fill:#000000; fill-opacity:1.0; 
  stroke:#000000; stroke-linecap:round; stroke-linejoin:round; stroke-opacity:1.0; stroke-opacity:1.0; stroke-width:0" 
   transform="translate(0 0) scale(1 1)">
<ellipse cx="62500" cy="40000" rx="275" ry="275"  /> 
</g>
<g style="fill:#FFFFFF; fill-opacity:1.0; 
  stroke:#808000; stroke-linecap:round; stroke-linejoin:round; stroke-opacity:1.0; stroke-opacity:1.0; stroke-width:0" 
   transform="translate(0 0) scale(1 1)">
<ellipse cx="62500" cy="40000" rx="160" ry="160"  /> 
</g>
<g style="fill:#000000; fill-opacity:1.0; 
  stroke:#000000; stroke-linecap:round; stroke-linejoin:round; stroke-opacity:1.0; stroke-opacity:1.0; stroke-width:0" 
   transform="translate(0 0) scale(1 1)">
<ellipse cx="62500" cy="41000" rx="275" ry="275"  /> 
</g>
<g style="fill:#FFFFFF; fill-opacity:1.0; 
  stroke:#808000; stroke-linecap:round; stroke-linejoin:round; stroke-opacity:1.0; stroke-opacity:1.0; stroke-width:0" 
   transform="translate(0 0) scale(1 1)">
<ellipse cx="62500" cy="41000" rx="160" ry="160"  /> 
</g>
<g style="fill:#000000; fill-opacity:1.0; 
  stroke:#000000; stroke-linecap:round; stroke-linejoin:round; stroke-opacity:1.0; stroke-opacity:1.0; stroke-width:0" 
   transform="translate(0 0) scale(1 1)">
<polygon style="fill-rule:evenodd; " 
points="67775,41275
67225,41275
67225,40725
67775,40725
" /> 
</g>
<g style="fill:#FFFFFF; fill-opacity:1.0; 
  stroke:#808000; stroke-linecap:round; stroke-linejoin:round; stroke-opacity:1.0; stroke-opacity:1.0; stroke-width:0" 
   transform="translate(0 0) scale(1 1)">
<ellipse cx="67500" cy="41000" rx="160" ry="160"  /> 
</g>
<g style="fill:#000000; fill-opacity:1.0; 
  stroke:#000000; stroke-linecap:round; stroke-linejoin:round; stroke-opacity:1.0; stroke-opacity:1.0; stroke-width:0" 
   transform="translate(0 0) scale(1 1)">
<ellipse cx="67500" cy="40000" rx="275" ry="275"  /> 
</g>
<g style="fill:#FFFFFF; fill-opacity:1.0; 
  stroke:#808000; stroke-linecap:round; stroke-linejoin:round; stroke-opacity:1.0; stroke-opacity:1.0; stroke-width:0" 
   transform="translate(0 0) scale(1 1)">
<ellipse cx="67500" cy="40000" rx="160" ry="160"  /> 
</g>
<g style="fill:#000000; fill-opacity:1.0; 
  stroke:#000000; stroke-linecap:round; stroke-linejoin:round; stroke-opacity:1.0; stroke-opacity:1.0; stroke-width:0" 
   transform="translate(0 0) scale(1 1)">
<ellipse cx="67500" cy="39000" rx="275" ry="275"  /> 
</g>
<g style="fill:#FFFFFF; fill-opacity:1.0; 
  stroke:#808000; stroke-linecap:round; stroke-linejoin:round; stroke-opacity:1.0; stroke-opacity:1.0; stroke-width:0" 
   transform="translate(0 0) scale(1 1)">
<ellipse cx="67500" cy="39000" rx="160" ry="160"  /> 
</g>
<g style="fill:#000000; fill-opacity:1.0; 
  stroke:#000000; stroke-linecap:round; stroke-linejoin:round; stroke-opacity:1.0; stroke-opacity:1.0; stroke-width:0" 
   transform="translate(0 0) scale(1 1)">
<ellipse cx="67500" cy="38000" rx="275" ry="275"  /> 
</g>
<g style="fill:#FFFFFF; fill-opacity:1.0; 
  stroke:#808000; stroke-linecap:round; stroke-linejoin:round; stroke-opacity:1.0; stroke-opacity:1.0; stroke-width:0" 
   transform="translate(0 0) scale(1 1)">
<ellipse cx="67500" cy="38000" rx="160" ry="160"  /> 
</g>
<g style="fill:#000000; fill-opacity:1.0; 
  stroke:#000000; stroke-linecap:round; stroke-linejoin:round; stroke-opacity:1.0; stroke-opacity:1.0; stroke-width:0" 
   transform="translate(0 0) scale(1 1)">
<polygon style="fill-rule:evenodd; " 
points="63225,37725
63775,37725
63775,38275
63225,38275
" /> 
</g>
<g style="fill:#FFFFFF; fill-opacity:1.0; 
  stroke:#808000; stroke-linecap:round; stroke-linejoin:round; stroke-opacity:1.0; stroke-opacity:1.0; stroke-width:0" 
   transform="translate(0 0) scale(1 1)">
<ellipse cx="63500" cy="38000" rx="160" ry="160"  /> 
</g>
<g style="fill:#000000; fill-opacity:1.0; 
  stroke:#000000; stroke-linecap:round; stroke-linejoin:round; stroke-opacity:1.0; stroke-opacity:1.0; stroke-width:0" 
   transform="translate(0 0) scale(1 1)">
<ellipse cx="63500" cy="39000" rx="275" ry="275"  /> 
</g>
<g style="fill:#FFFFFF; fill-opacity:1.0; 
  stroke:#808000; stroke-linecap:round; stroke-linejoin:round; stroke-opacity:1.0; stroke-opacity:1.0; stroke-width:0" 
   transform="translate(0 0) scale(1 1)">
<ellipse cx="63500" cy="39000" rx="160" ry="160"  /> 
</g>
<g style="fill:#000000; fill-opacity:1.0; 
  stroke:#000000; stroke-linecap:round; stroke-linejoin:round; stroke-opacity:1.0; stroke-opacity:1.0; stroke-width:0" 
   transform="translate(0 0) scale(1 1)">
<ellipse cx="63500" cy="40000" rx="275" ry="275"  /> 
</g>
<g style="fill:#FFFFFF; fill-opacity:1.0; 
  stroke:#808000; stroke-linecap:round; stroke-linejoin:round; stroke-opacity:1.0; stroke-opacity:1.0; stroke-width:0" 
   transform="translate(0 0) scale(1 1)">
<ellipse cx="63500" cy="40000" rx="160" ry="160"  /> 
</g>
<g style="fill:#000000; fill-opacity:1.0; 
  stroke:#000000; stroke-linecap:round; stroke-linejoin:round; stroke-opacity:1.0; stroke-opacity:1.0; stroke-width:0" 
   transform="translate(0 0) scale(1 1)">
<ellipse cx="63500" cy="41000" rx="275" ry="275"  /> 
</g>
<g style="fill:#FFFFFF; fill-opacity:1.0; 
  stroke:#808000; stroke-linecap:round; stroke-linejoin:round; stroke-opacity:1.0; stroke-opacity:1.0; stroke-width:0" 
   transform="translate(0 0) scale(1 1)">
<ellipse cx="63500" cy="41000" rx="160" ry="160"  /> 
</g>
<g style="fill:#000000; fill-opacity:1.0; 
  stroke:#000000; stroke-linecap:round; stroke-linejoin:round; stroke-opacity:1.0; stroke-opacity:1.0; stroke-width:0" 
   transform="translate(0 0) scale(1 1)">
<ellipse cx="66500" cy="41000" rx="275" ry="275"  /> 
</g>
<g style="fill:#FFFFFF; fill-opacity:1.0; 
  stroke:#808000; stroke-linecap:round; stroke-linejoin:round; stroke-opacity:1.0; stroke-opacity:1.0; stroke-width:0" 
   transform="translate(0 0) scale(1 1)">
<ellipse cx="66500" cy="41000" rx="160" ry="160"  /> 
</g>
<g style="fill:#000000; fill-opacity:1.0; 
  stroke:#000000; stroke-linecap:round; stroke-linejoin:round; stroke-opacity:1.0; stroke-opacity:1.0; stroke-width:0" 
   transform="translate(0 0) scale(1 1)">
<ellipse cx="66500" cy="40000" rx="275" ry="275"  /> 
</g>
<g style="fill:#FFFFFF; fill-opacity:1.0; 
  stroke:#808000; stroke-linecap:round; stroke-linejoin:round; stroke-opacity:1.0; stroke-opacity:1.0; stroke-width:0" 
   transform="translate(0 0) scale(1 1)">
<ellipse cx="66500" cy="40000" rx="160" ry="160"  /> 
</g>
<g style="fill:#000000; fill-opacity:1.0; 
  stroke:#000000; stroke-linecap:round; stroke-linejoin:round; stroke-opacity:1.0; stroke-opacity:1.0; stroke-width:0" 
   transform="translate(0 0) scale(1 1)">
<ellipse cx="66500" cy="39000" rx="275" ry="275"  /> 
</g>
<g style="fill:#FFFFFF; fill-opacity:1.0; 
  stroke:#808000; stroke-linecap:round; stroke-linejoin:round; stroke-opacity:1.0; stroke-opacity:1.0; stroke-width:0" 
   transform="translate(0 0) scale(1 1)">
<ellipse cx="66500" cy="39000" rx="160" ry="160"  /> 
</g>
<g style="fill:#000000; fill-opacity:1.0; 
  stroke:#000000; stroke-linecap:round; stroke-linejoin:round; stroke-opacity:1.0; stroke-opacity:1.0; stroke-width:0" 
   transform="translate(0 0) scale(1 1)">
<ellipse cx="66500" cy="38000" rx="275" ry="275"  /> 
</g>
<g style="fill:#FFFFFF; fill-opacity:1.0; 
  stroke:#808000; stroke-linecap:round; stroke-linejoin:round; stroke-opacity:1.0; stroke-opacity:1.0; stroke-width:0" 
   transform="translate(0 0) scale(1 1)">
<ellipse cx="66500" cy="38000" rx="160" ry="160"  /> 
</g>
<g style="fill:#000000; fill-opacity:1.0; 
  stroke:#000000; stroke-linecap:round; stroke-linejoin:round; stroke-opacity:1.0; stroke-opacity:1.0; stroke-width:0" 
   transform="translate(0 0) scale(1 1)">
<polygon style="fill-rule:evenodd; " 
points="57775,42775
57225,42775
57225,42225
57775,42225
" /> 
</g>
<g style="fill:#FFFFFF; fill-opacity:1.0; 
  stroke:#808000; stroke-linecap:round; stroke-linejoin:round; stroke-opacity:1.0; stroke-opacity:1.0; stroke-width:0" 
   transform="translate(0 0) scale(1 1)">
<ellipse cx="57500" cy="42500" rx="160" ry="160"  /> 
</g>
<g style="fill:#000000; fill-opacity:1.0; 
  stroke:#000000; stroke-linecap:round; stroke-linejoin:round; stroke-opacity:1.0; stroke-opacity:1.0; stroke-width:0" 
   transform="translate(0 0) scale(1 1)">
<ellipse cx="57500" cy="41500" rx="275" ry="275"  /> 
</g>
<g style="fill:#FFFFFF; fill-opacity:1.0; 
  stroke:#808000; stroke-linecap:round; stroke-linejoin:round; stroke-opacity:1.0; stroke-opacity:1.0; stroke-width:0" 
   transform="translate(0 0) scale(1 1)">
<ellipse cx="57500" cy="41500" rx="160" ry="160"  /> 
</g>
<g style="fill:#000000; fill-opacity:1.0; 
  stroke:#000000; stroke-linecap:round; stroke-linejoin:round; stroke-opacity:1.0; stroke-opacity:1.0; stroke-width:0" 
   transform="translate(0 0) scale(1 1)">
<polygon style="fill-rule:evenodd; " 
points="59725,41225
60275,41225
60275,41775
59725,41775
" /> 
</g>
<g style="fill:#FFFFFF; fill-opacity:1.0; 
  stroke:#808000; stroke-linecap:round; stroke-linejoin:round; stroke-opacity:1.0; stroke-opacity:1.0; stroke-width:0" 
   transform="translate(0 0) scale(1 1)">
<ellipse cx="60000" cy="41500" rx="160" ry="160"  /> 
</g>
<g style="fill:#000000; fill-opacity:1.0; 
  stroke:#000000; stroke-linecap:round; stroke-linejoin:round; stroke-opacity:1.0; stroke-opacity:1.0; stroke-width:0" 
   transform="translate(0 0) scale(1 1)">
<ellipse cx="60000" cy="42500" rx="275" ry="275"  /> 
</g>
<g style="fill:#FFFFFF; fill-opacity:1.0; 
  stroke:#808000; stroke-linecap:round; stroke-linejoin:round; stroke-opacity:1.0; stroke-opacity:1.0; stroke-width:0" 
   transform="translate(0 0) scale(1 1)">
<ellipse cx="60000" cy="42500" rx="160" ry="160"  /> 
</g>
<g style="fill:#000000; fill-opacity:1.0; 
  stroke:#000000; stroke-linecap:round; stroke-linejoin:round; stroke-opacity:1.0; stroke-opacity:1.0; stroke-width:0" 
   transform="translate(0 0) scale(1 1)">
<polygon style="fill-rule:evenodd; " 
points="57275,37775
56725,37775
56725,37225
57275,37225
" /> 
</g>
<g style="fill:#FFFFFF; fill-opacity:1.0; 
  stroke:#808000; stroke-linecap:round; stroke-linejoin:round; stroke-opacity:1.0; stroke-opacity:1.0; stroke-width:0" 
   transform="translate(0 0) scale(1 1)">
<ellipse cx="57000" cy="37500" rx="160" ry="160"  /> 
</g>
<g style="fill:#000000; fill-opacity:1.0; 
  stroke:#000000; stroke-linecap:round; stroke-linejoin:round; stroke-opacity:1.0; stroke-opacity:1.0; stroke-width:0" 
   transform="translate(0 0) scale(1 1)">
<ellipse cx="57000" cy="40500" rx="275" ry="275"  /> 
</g>
<g style="fill:#FFFFFF; fill-opacity:1.0; 
  stroke:#808000; stroke-linecap:round; stroke-linejoin:round; stroke-opacity:1.0; stroke-opacity:1.0; stroke-width:0" 
   transform="translate(0 0) scale(1 1)">
<ellipse cx="57000" cy="40500" rx="160" ry="160"  /> 
</g>
<g style="fill:#000000; fill-opacity:1.0; 
  stroke:#000000; stroke-linecap:round; stroke-linejoin:round; stroke-opacity:1.0; stroke-opacity:1.0; stroke-width:0" 
   transform="translate(0 0) scale(1 1)">
<polygon style="fill-rule:evenodd; " 
points="58275,37775
57725,37775
57725,37225
58275,37225
" /> 
</g>
<g style="fill:#FFFFFF; fill-opacity:1.0; 
  stroke:#808000; stroke-linecap:round; stroke-linejoin:round; stroke-opacity:1.0; stroke-opacity:1.0; stroke-width:0" 
   transform="translate(0 0) scale(1 1)">
<ellipse cx="58000" cy="37500" rx="160" ry="160"  /> 
</g>
<g style="fill:#000000; fill-opacity:1.0; 
  stroke:#000000; stroke-linecap:round; stroke-linejoin:round; stroke-opacity:1.0; stroke-opacity:1.0; stroke-width:0" 
   transform="translate(0 0) scale(1 1)">
<ellipse cx="58000" cy="40500" rx="275" ry="275"  /> 
</g>
<g style="fill:#FFFFFF; fill-opacity:1.0; 
  stroke:#808000; stroke-linecap:round; stroke-linejoin:round; stroke-opacity:1.0; stroke-opacity:1.0; stroke-width:0" 
   transform="translate(0 0) scale(1 1)">
<ellipse cx="58000" cy="40500" rx="160" ry="160"  /> 
</g>
<g style="fill:#000000; fill-opacity:1.0; 
  stroke:#000000; stroke-linecap:round; stroke-linejoin:round; stroke-opacity:1.0; stroke-opacity:1.0; stroke-width:0" 
   transform="translate(0 0) scale(1 1)">
<ellipse cx="63500" cy="42500" rx="330" ry="330"  /> 
</g>
<g style="fill:#FFFFFF; fill-opacity:1.0; 
  stroke:#808000; stroke-linecap:round; stroke-linejoin:round; stroke-opacity:1.0; stroke-opacity:1.0; stroke-width:0" 
   transform="translate(0 0) scale(1 1)">
<ellipse cx="63500" cy="42500" rx="160" ry="160"  /> 
</g>
<g style="fill:#000000; fill-opacity:1.0; 
  stroke:#000000; stroke-linecap:round; stroke-linejoin:round; stroke-opacity:1.0; stroke-opacity:1.0; stroke-width:0" 
   transform="translate(0 0) scale(1 1)">
<ellipse cx="62500" cy="42500" rx="330" ry="330"  /> 
</g>
<g style="fill:#FFFFFF; fill-opacity:1.0; 
  stroke:#808000; stroke-linecap:round; stroke-linejoin:round; stroke-opacity:1.0; stroke-opacity:1.0; stroke-width:0" 
   transform="translate(0 0) scale(1 1)">
<ellipse cx="62500" cy="42500" rx="160" ry="160"  /> 
</g>
<g style="fill:#000000; fill-opacity:1.0; 
  stroke:#000000; stroke-linecap:round; stroke-linejoin:round; stroke-opacity:1.0; stroke-opacity:1.0; stroke-width:0" 
   transform="translate(0 0) scale(1 1)">
<ellipse cx="59000" cy="40500" rx="275" ry="275"  /> 
</g>
<g style="fill:#FFFFFF; fill-opacity:1.0; 
  stroke:#808000; stroke-linecap:round; stroke-linejoin:round; stroke-opacity:1.0; stroke-opacity:1.0; stroke-width:0" 
   transform="translate(0 0) scale(1 1)">
<ellipse cx="59000" cy="40500" rx="160" ry="160"  /> 
</g>
<g style="fill:#000000; fill-opacity:1.0; 
  stroke:#000000; stroke-linecap:round; stroke-linejoin:round; stroke-opacity:1.0; stroke-opacity:1.0; stroke-width:0" 
   transform="translate(0 0) scale(1 1)">
<ellipse cx="59000" cy="37500" rx="275" ry="275"  /> 
</g>
<g style="fill:#FFFFFF; fill-opacity:1.0; 
  stroke:#808000; stroke-linecap:round; stroke-linejoin:round; stroke-opacity:1.0; stroke-opacity:1.0; stroke-width:0" 
   transform="translate(0 0) scale(1 1)">
<ellipse cx="59000" cy="37500" rx="160" ry="160"  /> 
</g>
<g style="fill:#000000; fill-opacity:1.0; 
  stroke:#000000; stroke-linecap:round; stroke-linejoin:round; stroke-opacity:1.0; stroke-opacity:1.0; stroke-width:0" 
   transform="translate(0 0) scale(1 1)">
<ellipse cx="61000" cy="37500" rx="275" ry="275"  /> 
</g>
<g style="fill:#FFFFFF; fill-opacity:1.0; 
  stroke:#808000; stroke-linecap:round; stroke-linejoin:round; stroke-opacity:1.0; stroke-opacity:1.0; stroke-width:0" 
   transform="translate(0 0) scale(1 1)">
<ellipse cx="61000" cy="37500" rx="160" ry="160"  /> 
</g>
<g style="fill:#000000; fill-opacity:1.0; 
  stroke:#000000; stroke-linecap:round; stroke-linejoin:round; stroke-opacity:1.0; stroke-opacity:1.0; stroke-width:0" 
   transform="translate(0 0) scale(1 1)">
<ellipse cx="61000" cy="40500" rx="275" ry="275"  /> 
</g>
<g style="fill:#FFFFFF; fill-opacity:1.0; 
  stroke:#808000; stroke-linecap:round; stroke-linejoin:round; stroke-opacity:1.0; stroke-opacity:1.0; stroke-width:0" 
   transform="translate(0 0) scale(1 1)">
<ellipse cx="61000" cy="40500" rx="160" ry="160"  /> 
</g>
<g style="fill:#000000; fill-opacity:1.0; 
  stroke:#000000; stroke-linecap:round; stroke-linejoin:round; stroke-opacity:1.0; stroke-opacity:1.0; stroke-width:0" 
   transform="translate(0 0) scale(1 1)">
<ellipse cx="60000" cy="37500" rx="275" ry="275"  /> 
</g>
<g style="fill:#FFFFFF; fill-opacity:1.0; 
  stroke:#808000; stroke-linecap:round; stroke-linejoin:round; stroke-opacity:1.0; stroke-opacity:1.0; stroke-width:0" 
   transform="translate(0 0) scale(1 1)">
<ellipse cx="60000" cy="37500" rx="160" ry="160"  /> 
</g>
<g style="fill:#000000; fill-opacity:1.0; 
  stroke:#000000; stroke-linecap:round; stroke-linejoin:round; stroke-opacity:1.0; stroke-opacity:1.0; stroke-width:0" 
   transform="translate(0 0) scale(1 1)">
<ellipse cx="60000" cy="40500" rx="275" ry="275"  /> 
</g>
<g style="fill:#FFFFFF; fill-opacity:1.0; 
  stroke:#808000; stroke-linecap:round; stroke-linejoin:round; stroke-opacity:1.0; stroke-opacity:1.0; stroke-width:0" 
   transform="translate(0 0) scale(1 1)">
<ellipse cx="60000" cy="40500" rx="160" ry="160"  /> 
</g>
<g style="fill:#000000; fill-opacity:1.0; 
  stroke:#000000; stroke-linecap:round; stroke-linejoin:round; stroke-opacity:1.0; stroke-opacity:1.0; stroke-width:0" 
   transform="translate(0 0) scale(1 1)">
<ellipse cx="64500" cy="42500" rx="275" ry="275"  /> 
</g>
<g style="fill:#FFFFFF; fill-opacity:1.0; 
  stroke:#808000; stroke-linecap:round; stroke-linejoin:round; stroke-opacity:1.0; stroke-opacity:1.0; stroke-width:0" 
   transform="translate(0 0) scale(1 1)">
<ellipse cx="64500" cy="42500" rx="160" ry="160"  /> 
</g>
<g style="fill:#000000; fill-opacity:1.0; 
  stroke:#000000; stroke-linecap:round; stroke-linejoin:round; stroke-opacity:1.0; stroke-opacity:1.0; stroke-width:0" 
   transform="translate(0 0) scale(1 1)">
<ellipse cx="67500" cy="42500" rx="275" ry="275"  /> 
</g>
<g style="fill:#FFFFFF; fill-opacity:1.0; 
  stroke:#808000; stroke-linecap:round; stroke-linejoin:round; stroke-opacity:1.0; stroke-opacity:1.0; stroke-width:0" 
   transform="translate(0 0) scale(1 1)">
<ellipse cx="67500" cy="42500" rx="160" ry="160"  /> 
</g>
<g style="fill:#000000; fill-opacity:1.0; 
  stroke:#000000; stroke-linecap:round; stroke-linejoin:round; stroke-opacity:1.0; stroke-opacity:1.0; stroke-width:0" 
   transform="translate(0 0) scale(1 1)">
<ellipse cx="55450" cy="39400" rx="295" ry="295"  /> 
</g>
<g style="fill:#FFFFFF; fill-opacity:1.0; 
  stroke:#808000; stroke-linecap:round; stroke-linejoin:round; stroke-opacity:1.0; stroke-opacity:1.0; stroke-width:0" 
   transform="translate(0 0) scale(1 1)">
<ellipse cx="55450" cy="39400" rx="197" ry="197"  /> 
</g>
<g style="fill:#000000; fill-opacity:1.0; 
  stroke:#000000; stroke-linecap:round; stroke-linejoin:round; stroke-opacity:1.0; stroke-opacity:1.0; stroke-width:0" 
   transform="translate(0 0) scale(1 1)">
<ellipse cx="55450" cy="40550" rx="295" ry="295"  /> 
</g>
<g style="fill:#FFFFFF; fill-opacity:1.0; 
  stroke:#808000; stroke-linecap:round; stroke-linejoin:round; stroke-opacity:1.0; stroke-opacity:1.0; stroke-width:0" 
   transform="translate(0 0) scale(1 1)">
<ellipse cx="55450" cy="40550" rx="197" ry="197"  /> 
</g>
<g style="fill:#000000; fill-opacity:1.0; 
  stroke:#000000; stroke-linecap:round; stroke-linejoin:round; stroke-opacity:1.0; stroke-opacity:1.0; stroke-width:0" 
   transform="translate(0 0) scale(1 1)">
<ellipse cx="55450" cy="41700" rx="295" ry="295"  /> 
</g>
<g style="fill:#FFFFFF; fill-opacity:1.0; 
  stroke:#808000; stroke-linecap:round; stroke-linejoin:round; stroke-opacity:1.0; stroke-opacity:1.0; stroke-width:0" 
   transform="translate(0 0) scale(1 1)">
<ellipse cx="55450" cy="41700" rx="197" ry="197"  /> 
</g>
<g style="fill:#000000; fill-opacity:1.0; 
  stroke:#000000; stroke-linecap:round; stroke-linejoin:round; stroke-opacity:1.0; stroke-opacity:1.0; stroke-width:0" 
   transform="translate(0 0) scale(1 1)">
<ellipse cx="55450" cy="38300" rx="295" ry="295"  /> 
</g>
<g style="fill:#FFFFFF; fill-opacity:1.0; 
  stroke:#808000; stroke-linecap:round; stroke-linejoin:round; stroke-opacity:1.0; stroke-opacity:1.0; stroke-width:0" 
   transform="translate(0 0) scale(1 1)">
<ellipse cx="55450" cy="38300" rx="197" ry="197"  /> 
</g>
<g style="fill:#000000; fill-opacity:1.0; 
  stroke:#000000; stroke-linecap:round; stroke-linejoin:round; stroke-opacity:1.0; stroke-opacity:1.0; stroke-width:0" 
   transform="translate(0 0) scale(1 1)">
<polygon style="fill-rule:evenodd; " 
points="53808,42557
54792,42557
54792,43343
53808,43343
" /> 
</g>
<g style="fill:#FFFFFF; fill-opacity:1.0; 
  stroke:#808000; stroke-linecap:round; stroke-linejoin:round; stroke-opacity:1.0; stroke-opacity:1.0; stroke-width:0" 
   transform="translate(0 0) scale(1 1)">
<ellipse cx="54300" cy="42950" rx="197" ry="197"  /> 
</g>
<g style="fill:#000000; fill-opacity:1.0; 
  stroke:#000000; stroke-linecap:round; stroke-linejoin:round; stroke-opacity:1.0; stroke-opacity:1.0; stroke-width:0" 
   transform="translate(0 0) scale(1 1)">
<polygon style="fill-rule:evenodd; " 
points="53808,36657
54792,36657
54792,37443
53808,37443
" /> 
</g>
<g style="fill:#FFFFFF; fill-opacity:1.0; 
  stroke:#808000; stroke-linecap:round; stroke-linejoin:round; stroke-opacity:1.0; stroke-opacity:1.0; stroke-width:0" 
   transform="translate(0 0) scale(1 1)">
<ellipse cx="54300" cy="37050" rx="197" ry="197"  /> 
</g> 
</svg> 
