G04 (created by PCBNEW-RS274X (2012-apr-16-27)-stable) date Thursday 03 April 2014 09:48:40 AM IST*
G01*
G70*
G90*
%MOIN*%
G04 Gerber Fmt 3.4, Leading zero omitted, Abs format*
%FSLAX34Y34*%
G04 APERTURE LIST*
%ADD10C,0.006000*%
%ADD11C,0.012000*%
%ADD12C,0.010000*%
%ADD13C,0.005000*%
%ADD14C,0.008000*%
%ADD15C,0.015000*%
%ADD16C,0.010700*%
%ADD17C,0.007500*%
%ADD18C,0.003500*%
G04 APERTURE END LIST*
G54D10*
G54D11*
X63000Y-37500D02*
X63000Y-37500D01*
X62000Y-37500D02*
X63000Y-37500D01*
X63000Y-37500D02*
X63000Y-37500D01*
X63000Y-37500D02*
X63000Y-41500D01*
X63000Y-41500D02*
X62000Y-41500D01*
X62000Y-41500D02*
X62000Y-37500D01*
X62000Y-38500D02*
X63000Y-38500D01*
X67000Y-41500D02*
X67000Y-41500D01*
X68000Y-41500D02*
X67000Y-41500D01*
X67000Y-41500D02*
X67000Y-41500D01*
X67000Y-41500D02*
X67000Y-37500D01*
X67000Y-37500D02*
X68000Y-37500D01*
X68000Y-37500D02*
X68000Y-41500D01*
X68000Y-40500D02*
X67000Y-40500D01*
G54D12*
X65500Y-37500D02*
X65500Y-38000D01*
X65500Y-38000D02*
X64500Y-38000D01*
X64500Y-38000D02*
X64500Y-37500D01*
X66000Y-37500D02*
X66000Y-41500D01*
X66000Y-41500D02*
X64000Y-41500D01*
X64000Y-41500D02*
X64000Y-37500D01*
X64000Y-37500D02*
X66000Y-37500D01*
G54D13*
X58501Y-42000D02*
X58481Y-42194D01*
X58425Y-42381D01*
X58333Y-42553D01*
X58210Y-42705D01*
X58059Y-42829D01*
X57887Y-42922D01*
X57701Y-42980D01*
X57506Y-43000D01*
X57313Y-42983D01*
X57126Y-42928D01*
X56952Y-42837D01*
X56800Y-42715D01*
X56675Y-42565D01*
X56580Y-42394D01*
X56521Y-42208D01*
X56500Y-42013D01*
X56516Y-41820D01*
X56570Y-41632D01*
X56659Y-41458D01*
X56780Y-41305D01*
X56929Y-41179D01*
X57100Y-41083D01*
X57286Y-41023D01*
X57480Y-41000D01*
X57673Y-41015D01*
X57861Y-41067D01*
X58036Y-41155D01*
X58190Y-41276D01*
X58317Y-41423D01*
X58414Y-41593D01*
X58476Y-41779D01*
X58500Y-41973D01*
X58501Y-42000D01*
X61001Y-42000D02*
X60981Y-42194D01*
X60925Y-42381D01*
X60833Y-42553D01*
X60710Y-42705D01*
X60559Y-42829D01*
X60387Y-42922D01*
X60201Y-42980D01*
X60006Y-43000D01*
X59813Y-42983D01*
X59626Y-42928D01*
X59452Y-42837D01*
X59300Y-42715D01*
X59175Y-42565D01*
X59080Y-42394D01*
X59021Y-42208D01*
X59000Y-42013D01*
X59016Y-41820D01*
X59070Y-41632D01*
X59159Y-41458D01*
X59280Y-41305D01*
X59429Y-41179D01*
X59600Y-41083D01*
X59786Y-41023D01*
X59980Y-41000D01*
X60173Y-41015D01*
X60361Y-41067D01*
X60536Y-41155D01*
X60690Y-41276D01*
X60817Y-41423D01*
X60914Y-41593D01*
X60976Y-41779D01*
X61000Y-41973D01*
X61001Y-42000D01*
G54D11*
X57000Y-37500D02*
X57000Y-37800D01*
X57000Y-37800D02*
X56600Y-37800D01*
X56600Y-37800D02*
X56600Y-40200D01*
X56600Y-40200D02*
X57000Y-40200D01*
X57000Y-40200D02*
X57000Y-40500D01*
X57000Y-40200D02*
X57400Y-40200D01*
X57400Y-40200D02*
X57400Y-37800D01*
X57400Y-37800D02*
X57000Y-37800D01*
X56600Y-38000D02*
X57400Y-38000D01*
X57400Y-38100D02*
X56600Y-38100D01*
X58000Y-37500D02*
X58000Y-37800D01*
X58000Y-37800D02*
X57600Y-37800D01*
X57600Y-37800D02*
X57600Y-40200D01*
X57600Y-40200D02*
X58000Y-40200D01*
X58000Y-40200D02*
X58000Y-40500D01*
X58000Y-40200D02*
X58400Y-40200D01*
X58400Y-40200D02*
X58400Y-37800D01*
X58400Y-37800D02*
X58000Y-37800D01*
X57600Y-38000D02*
X58400Y-38000D01*
X58400Y-38100D02*
X57600Y-38100D01*
G54D12*
X62280Y-42000D02*
X62280Y-43000D01*
G54D10*
X63360Y-42884D02*
X63392Y-42842D01*
X63420Y-42798D01*
X63444Y-42751D01*
X63464Y-42703D01*
X63480Y-42653D01*
X63491Y-42602D01*
X63497Y-42550D01*
X63500Y-42500D01*
X63499Y-42500D02*
X63496Y-42448D01*
X63489Y-42396D01*
X63478Y-42345D01*
X63462Y-42296D01*
X63442Y-42247D01*
X63418Y-42201D01*
X63390Y-42157D01*
X63358Y-42115D01*
X63347Y-42103D01*
X62301Y-42500D02*
X62304Y-42552D01*
X62311Y-42604D01*
X62322Y-42655D01*
X62338Y-42704D01*
X62358Y-42753D01*
X62382Y-42799D01*
X62410Y-42843D01*
X62442Y-42885D01*
X62446Y-42889D01*
X62440Y-42116D02*
X62408Y-42158D01*
X62380Y-42202D01*
X62356Y-42249D01*
X62336Y-42297D01*
X62320Y-42347D01*
X62309Y-42398D01*
X62303Y-42450D01*
X62300Y-42500D01*
X62413Y-42849D02*
X62445Y-42890D01*
X62481Y-42928D01*
X62520Y-42963D01*
X62562Y-42995D01*
X62606Y-43022D01*
X62653Y-43046D01*
X62701Y-43065D01*
X62751Y-43081D01*
X62803Y-43091D01*
X62854Y-43098D01*
X62900Y-43100D01*
X62900Y-43100D02*
X62952Y-43097D01*
X63004Y-43090D01*
X63055Y-43079D01*
X63105Y-43063D01*
X63153Y-43043D01*
X63200Y-43019D01*
X63244Y-42991D01*
X63285Y-42959D01*
X63324Y-42924D01*
X63359Y-42885D01*
X63379Y-42860D01*
X62900Y-41901D02*
X62848Y-41904D01*
X62796Y-41911D01*
X62745Y-41922D01*
X62696Y-41938D01*
X62647Y-41958D01*
X62601Y-41982D01*
X62557Y-42010D01*
X62515Y-42042D01*
X62477Y-42077D01*
X62442Y-42115D01*
X62428Y-42133D01*
X63373Y-42132D02*
X63339Y-42092D01*
X63302Y-42055D01*
X63261Y-42022D01*
X63218Y-41992D01*
X63173Y-41966D01*
X63125Y-41945D01*
X63076Y-41927D01*
X63025Y-41914D01*
X62974Y-41905D01*
X62921Y-41901D01*
X62900Y-41900D01*
X62900Y-42750D02*
X62921Y-42749D01*
X62943Y-42746D01*
X62964Y-42741D01*
X62985Y-42734D01*
X63005Y-42726D01*
X63025Y-42716D01*
X63043Y-42704D01*
X63060Y-42691D01*
X63076Y-42676D01*
X63091Y-42660D01*
X63104Y-42643D01*
X63116Y-42624D01*
X63126Y-42605D01*
X63134Y-42585D01*
X63141Y-42564D01*
X63146Y-42543D01*
X63149Y-42521D01*
X63150Y-42500D01*
X62900Y-42900D02*
X62934Y-42898D01*
X62969Y-42893D01*
X63003Y-42886D01*
X63036Y-42875D01*
X63069Y-42862D01*
X63100Y-42846D01*
X63129Y-42827D01*
X63157Y-42806D01*
X63182Y-42782D01*
X63206Y-42757D01*
X63227Y-42729D01*
X63246Y-42699D01*
X63262Y-42669D01*
X63275Y-42636D01*
X63286Y-42603D01*
X63293Y-42569D01*
X63298Y-42534D01*
X63300Y-42500D01*
X62900Y-42250D02*
X62879Y-42251D01*
X62857Y-42254D01*
X62836Y-42259D01*
X62815Y-42266D01*
X62795Y-42274D01*
X62776Y-42284D01*
X62757Y-42296D01*
X62740Y-42309D01*
X62724Y-42324D01*
X62709Y-42340D01*
X62696Y-42357D01*
X62684Y-42376D01*
X62674Y-42395D01*
X62666Y-42415D01*
X62659Y-42436D01*
X62654Y-42457D01*
X62651Y-42479D01*
X62650Y-42500D01*
X62900Y-42100D02*
X62866Y-42102D01*
X62831Y-42107D01*
X62797Y-42114D01*
X62764Y-42125D01*
X62731Y-42138D01*
X62701Y-42154D01*
X62671Y-42173D01*
X62643Y-42194D01*
X62618Y-42218D01*
X62594Y-42243D01*
X62573Y-42271D01*
X62554Y-42301D01*
X62538Y-42331D01*
X62525Y-42364D01*
X62514Y-42397D01*
X62507Y-42431D01*
X62502Y-42466D01*
X62500Y-42500D01*
G54D12*
X62287Y-43013D02*
X62334Y-43064D01*
X62385Y-43111D01*
X62440Y-43154D01*
X62499Y-43192D01*
X62561Y-43224D01*
X62626Y-43251D01*
X62692Y-43272D01*
X62760Y-43287D01*
X62829Y-43296D01*
X62899Y-43299D01*
X62900Y-43300D01*
X62900Y-43299D02*
X62969Y-43295D01*
X63038Y-43286D01*
X63106Y-43271D01*
X63173Y-43250D01*
X63237Y-43224D01*
X63299Y-43191D01*
X63358Y-43154D01*
X63413Y-43112D01*
X63464Y-43064D01*
X63512Y-43013D01*
X63554Y-42958D01*
X63591Y-42899D01*
X63604Y-42876D01*
X62899Y-41703D02*
X62830Y-41706D01*
X62761Y-41715D01*
X62693Y-41730D01*
X62626Y-41751D01*
X62562Y-41778D01*
X62500Y-41810D01*
X62442Y-41848D01*
X62386Y-41890D01*
X62335Y-41937D01*
X62291Y-41985D01*
X63594Y-42103D02*
X63556Y-42044D01*
X63514Y-41988D01*
X63467Y-41937D01*
X63416Y-41889D01*
X63361Y-41847D01*
X63302Y-41809D01*
X63240Y-41777D01*
X63176Y-41750D01*
X63109Y-41728D01*
X63041Y-41713D01*
X62972Y-41704D01*
X62902Y-41701D01*
X62900Y-41700D01*
X63604Y-42879D02*
X63634Y-42816D01*
X63659Y-42751D01*
X63678Y-42684D01*
X63691Y-42615D01*
X63698Y-42546D01*
X63700Y-42500D01*
X63699Y-42500D02*
X63695Y-42431D01*
X63686Y-42362D01*
X63671Y-42294D01*
X63650Y-42227D01*
X63624Y-42163D01*
X63591Y-42101D01*
X63580Y-42082D01*
G54D14*
X59000Y-40500D02*
X59000Y-40300D01*
X59000Y-37500D02*
X59000Y-37700D01*
X59000Y-37700D02*
X58600Y-37700D01*
X58600Y-37700D02*
X58600Y-40300D01*
X58600Y-40300D02*
X59400Y-40300D01*
X59400Y-40300D02*
X59400Y-37700D01*
X59400Y-37700D02*
X59000Y-37700D01*
X58800Y-40300D02*
X58600Y-40100D01*
X61000Y-37500D02*
X61000Y-37700D01*
X61000Y-40500D02*
X61000Y-40300D01*
X61000Y-40300D02*
X61400Y-40300D01*
X61400Y-40300D02*
X61400Y-37700D01*
X61400Y-37700D02*
X60600Y-37700D01*
X60600Y-37700D02*
X60600Y-40300D01*
X60600Y-40300D02*
X61000Y-40300D01*
X61200Y-37700D02*
X61400Y-37900D01*
X60000Y-37500D02*
X60000Y-37700D01*
X60000Y-40500D02*
X60000Y-40300D01*
X60000Y-40300D02*
X60400Y-40300D01*
X60400Y-40300D02*
X60400Y-37700D01*
X60400Y-37700D02*
X59600Y-37700D01*
X59600Y-37700D02*
X59600Y-40300D01*
X59600Y-40300D02*
X60000Y-40300D01*
X60200Y-37700D02*
X60400Y-37900D01*
X64500Y-42500D02*
X64700Y-42500D01*
X67500Y-42500D02*
X67300Y-42500D01*
X67300Y-42500D02*
X67300Y-42100D01*
X67300Y-42100D02*
X64700Y-42100D01*
X64700Y-42100D02*
X64700Y-42900D01*
X64700Y-42900D02*
X67300Y-42900D01*
X67300Y-42900D02*
X67300Y-42500D01*
X64700Y-42300D02*
X64900Y-42100D01*
G54D15*
X49550Y-37050D02*
X49550Y-42950D01*
X49550Y-42950D02*
X55450Y-42950D01*
X55450Y-42950D02*
X55450Y-37050D01*
X55450Y-37050D02*
X49550Y-37050D01*
G54D16*
X63776Y-39816D02*
X63093Y-39816D01*
X63093Y-39653D01*
X63125Y-39612D01*
X63158Y-39592D01*
X63223Y-39572D01*
X63321Y-39572D01*
X63386Y-39592D01*
X63418Y-39612D01*
X63451Y-39653D01*
X63451Y-39816D01*
X63776Y-39164D02*
X63776Y-39408D01*
X63776Y-39286D02*
X63093Y-39286D01*
X63191Y-39327D01*
X63256Y-39368D01*
X63288Y-39408D01*
X66776Y-39816D02*
X66093Y-39816D01*
X66093Y-39653D01*
X66125Y-39612D01*
X66158Y-39592D01*
X66223Y-39572D01*
X66321Y-39572D01*
X66386Y-39592D01*
X66418Y-39612D01*
X66451Y-39653D01*
X66451Y-39816D01*
X66158Y-39408D02*
X66125Y-39388D01*
X66093Y-39347D01*
X66093Y-39245D01*
X66125Y-39205D01*
X66158Y-39184D01*
X66223Y-39164D01*
X66288Y-39164D01*
X66386Y-39184D01*
X66776Y-39429D01*
X66776Y-39164D01*
G54D14*
X64561Y-37202D02*
X64561Y-36702D01*
X65032Y-37155D02*
X65011Y-37179D01*
X64947Y-37202D01*
X64904Y-37202D01*
X64839Y-37179D01*
X64797Y-37131D01*
X64775Y-37083D01*
X64754Y-36988D01*
X64754Y-36917D01*
X64775Y-36821D01*
X64797Y-36774D01*
X64839Y-36726D01*
X64904Y-36702D01*
X64947Y-36702D01*
X65011Y-36726D01*
X65032Y-36750D01*
X65461Y-37202D02*
X65204Y-37202D01*
X65332Y-37202D02*
X65332Y-36702D01*
X65289Y-36774D01*
X65247Y-36821D01*
X65204Y-36845D01*
X65060Y-41205D02*
X65060Y-41014D01*
X65202Y-41243D02*
X64702Y-41110D01*
X65202Y-40976D01*
X64702Y-40900D02*
X64702Y-40671D01*
X65202Y-40786D02*
X64702Y-40786D01*
X64702Y-40595D02*
X64702Y-40366D01*
X65202Y-40481D02*
X64702Y-40481D01*
X65202Y-40233D02*
X64702Y-40233D01*
X65202Y-40043D02*
X64702Y-40043D01*
X65202Y-39814D01*
X64702Y-39814D01*
X64964Y-39548D02*
X65202Y-39548D01*
X64702Y-39681D02*
X64964Y-39548D01*
X64702Y-39414D01*
X64917Y-39224D02*
X64893Y-39262D01*
X64869Y-39281D01*
X64821Y-39300D01*
X64798Y-39300D01*
X64750Y-39281D01*
X64726Y-39262D01*
X64702Y-39224D01*
X64702Y-39147D01*
X64726Y-39109D01*
X64750Y-39090D01*
X64798Y-39071D01*
X64821Y-39071D01*
X64869Y-39090D01*
X64893Y-39109D01*
X64917Y-39147D01*
X64917Y-39224D01*
X64940Y-39262D01*
X64964Y-39281D01*
X65012Y-39300D01*
X65107Y-39300D01*
X65155Y-39281D01*
X65179Y-39262D01*
X65202Y-39224D01*
X65202Y-39147D01*
X65179Y-39109D01*
X65155Y-39090D01*
X65107Y-39071D01*
X65012Y-39071D01*
X64964Y-39090D01*
X64940Y-39109D01*
X64917Y-39147D01*
X64702Y-38709D02*
X64702Y-38900D01*
X64940Y-38919D01*
X64917Y-38900D01*
X64893Y-38862D01*
X64893Y-38766D01*
X64917Y-38728D01*
X64940Y-38709D01*
X64988Y-38690D01*
X65107Y-38690D01*
X65155Y-38709D01*
X65179Y-38728D01*
X65202Y-38766D01*
X65202Y-38862D01*
X65179Y-38900D01*
X65155Y-38919D01*
X65012Y-38519D02*
X65012Y-38214D01*
X65202Y-38024D02*
X64702Y-38024D01*
X64702Y-37871D01*
X64726Y-37833D01*
X64750Y-37814D01*
X64798Y-37795D01*
X64869Y-37795D01*
X64917Y-37814D01*
X64940Y-37833D01*
X64964Y-37871D01*
X64964Y-38024D01*
G54D13*
X57593Y-42050D02*
X57607Y-42064D01*
X57621Y-42107D01*
X57621Y-42136D01*
X57607Y-42179D01*
X57579Y-42207D01*
X57550Y-42222D01*
X57493Y-42236D01*
X57450Y-42236D01*
X57393Y-42222D01*
X57364Y-42207D01*
X57336Y-42179D01*
X57321Y-42136D01*
X57321Y-42107D01*
X57336Y-42064D01*
X57350Y-42050D01*
X57621Y-41764D02*
X57621Y-41936D01*
X57621Y-41850D02*
X57321Y-41850D01*
X57364Y-41879D01*
X57393Y-41907D01*
X57407Y-41936D01*
X57921Y-42350D02*
X58121Y-42350D01*
X57807Y-42410D02*
X58021Y-42469D01*
X58021Y-42315D01*
X58093Y-42219D02*
X58107Y-42208D01*
X58121Y-42219D01*
X58107Y-42231D01*
X58093Y-42219D01*
X58121Y-42219D01*
X57821Y-42124D02*
X57821Y-41958D01*
X58121Y-42065D01*
X57921Y-41755D02*
X58121Y-41755D01*
X57921Y-41862D02*
X58079Y-41862D01*
X58107Y-41851D01*
X58121Y-41827D01*
X58121Y-41791D01*
X58107Y-41767D01*
X58093Y-41755D01*
X57964Y-41553D02*
X57964Y-41636D01*
X58121Y-41636D02*
X57821Y-41636D01*
X57821Y-41517D01*
G54D17*
X57507Y-43014D02*
X57507Y-42785D01*
X57621Y-42899D02*
X57393Y-42899D01*
G54D13*
X60593Y-42050D02*
X60607Y-42064D01*
X60621Y-42107D01*
X60621Y-42136D01*
X60607Y-42179D01*
X60579Y-42207D01*
X60550Y-42222D01*
X60493Y-42236D01*
X60450Y-42236D01*
X60393Y-42222D01*
X60364Y-42207D01*
X60336Y-42179D01*
X60321Y-42136D01*
X60321Y-42107D01*
X60336Y-42064D01*
X60350Y-42050D01*
X60350Y-41936D02*
X60336Y-41922D01*
X60321Y-41893D01*
X60321Y-41822D01*
X60336Y-41793D01*
X60350Y-41779D01*
X60379Y-41764D01*
X60407Y-41764D01*
X60450Y-41779D01*
X60621Y-41950D01*
X60621Y-41764D01*
X59321Y-42410D02*
X59321Y-42386D01*
X59336Y-42362D01*
X59350Y-42350D01*
X59379Y-42338D01*
X59436Y-42327D01*
X59507Y-42327D01*
X59564Y-42338D01*
X59593Y-42350D01*
X59607Y-42362D01*
X59621Y-42386D01*
X59621Y-42410D01*
X59607Y-42434D01*
X59593Y-42446D01*
X59564Y-42457D01*
X59507Y-42469D01*
X59436Y-42469D01*
X59379Y-42457D01*
X59350Y-42446D01*
X59336Y-42434D01*
X59321Y-42410D01*
X59593Y-42219D02*
X59607Y-42208D01*
X59621Y-42219D01*
X59607Y-42231D01*
X59593Y-42219D01*
X59621Y-42219D01*
X59621Y-41970D02*
X59621Y-42112D01*
X59621Y-42041D02*
X59321Y-42041D01*
X59364Y-42065D01*
X59393Y-42089D01*
X59407Y-42112D01*
X59421Y-41755D02*
X59621Y-41755D01*
X59421Y-41862D02*
X59579Y-41862D01*
X59607Y-41851D01*
X59621Y-41827D01*
X59621Y-41791D01*
X59607Y-41767D01*
X59593Y-41755D01*
X59464Y-41553D02*
X59464Y-41636D01*
X59621Y-41636D02*
X59321Y-41636D01*
X59321Y-41517D01*
G54D17*
X60007Y-41214D02*
X60007Y-40985D01*
X60121Y-41099D02*
X59893Y-41099D01*
G54D14*
X57162Y-39295D02*
X56762Y-39295D01*
X56762Y-39200D01*
X56781Y-39142D01*
X56819Y-39104D01*
X56857Y-39085D01*
X56933Y-39066D01*
X56990Y-39066D01*
X57067Y-39085D01*
X57105Y-39104D01*
X57143Y-39142D01*
X57162Y-39200D01*
X57162Y-39295D01*
X57162Y-38685D02*
X57162Y-38914D01*
X57162Y-38800D02*
X56762Y-38800D01*
X56819Y-38838D01*
X56857Y-38876D01*
X56876Y-38914D01*
X58162Y-39295D02*
X57762Y-39295D01*
X57762Y-39200D01*
X57781Y-39142D01*
X57819Y-39104D01*
X57857Y-39085D01*
X57933Y-39066D01*
X57990Y-39066D01*
X58067Y-39085D01*
X58105Y-39104D01*
X58143Y-39142D01*
X58162Y-39200D01*
X58162Y-39295D01*
X57800Y-38914D02*
X57781Y-38895D01*
X57762Y-38857D01*
X57762Y-38761D01*
X57781Y-38723D01*
X57800Y-38704D01*
X57838Y-38685D01*
X57876Y-38685D01*
X57933Y-38704D01*
X58162Y-38933D01*
X58162Y-38685D01*
G54D18*
X62078Y-43721D02*
X62078Y-43421D01*
X62150Y-43421D01*
X62193Y-43436D01*
X62221Y-43464D01*
X62236Y-43493D01*
X62250Y-43550D01*
X62250Y-43593D01*
X62236Y-43650D01*
X62221Y-43679D01*
X62193Y-43707D01*
X62150Y-43721D01*
X62078Y-43721D01*
X62350Y-43421D02*
X62536Y-43421D01*
X62436Y-43536D01*
X62478Y-43536D01*
X62507Y-43550D01*
X62521Y-43564D01*
X62536Y-43593D01*
X62536Y-43664D01*
X62521Y-43693D01*
X62507Y-43707D01*
X62478Y-43721D01*
X62393Y-43721D01*
X62364Y-43707D01*
X62350Y-43693D01*
X62807Y-41621D02*
X62664Y-41621D01*
X62664Y-41321D01*
X62907Y-41464D02*
X63007Y-41464D01*
X63050Y-41621D02*
X62907Y-41621D01*
X62907Y-41321D01*
X63050Y-41321D01*
X63178Y-41621D02*
X63178Y-41321D01*
X63250Y-41321D01*
X63293Y-41336D01*
X63321Y-41364D01*
X63336Y-41393D01*
X63350Y-41450D01*
X63350Y-41493D01*
X63336Y-41550D01*
X63321Y-41579D01*
X63293Y-41607D01*
X63250Y-41621D01*
X63178Y-41621D01*
G54D14*
X59273Y-39416D02*
X59273Y-39702D01*
X59273Y-39559D02*
X58723Y-39559D01*
X58801Y-39607D01*
X58854Y-39654D01*
X58880Y-39702D01*
X59220Y-39202D02*
X59246Y-39178D01*
X59273Y-39202D01*
X59246Y-39226D01*
X59220Y-39202D01*
X59273Y-39202D01*
X58723Y-38726D02*
X58723Y-38964D01*
X58985Y-38988D01*
X58958Y-38964D01*
X58932Y-38916D01*
X58932Y-38797D01*
X58958Y-38750D01*
X58985Y-38726D01*
X59037Y-38702D01*
X59168Y-38702D01*
X59220Y-38726D01*
X59246Y-38750D01*
X59273Y-38797D01*
X59273Y-38916D01*
X59246Y-38964D01*
X59220Y-38988D01*
X59273Y-38488D02*
X58723Y-38488D01*
X59063Y-38440D02*
X59273Y-38297D01*
X58906Y-38297D02*
X59115Y-38488D01*
X60623Y-39369D02*
X60623Y-39464D01*
X60649Y-39512D01*
X60675Y-39535D01*
X60754Y-39583D01*
X60858Y-39607D01*
X61068Y-39607D01*
X61120Y-39583D01*
X61146Y-39559D01*
X61173Y-39512D01*
X61173Y-39416D01*
X61146Y-39369D01*
X61120Y-39345D01*
X61068Y-39321D01*
X60937Y-39321D01*
X60885Y-39345D01*
X60858Y-39369D01*
X60832Y-39416D01*
X60832Y-39512D01*
X60858Y-39559D01*
X60885Y-39583D01*
X60937Y-39607D01*
X60858Y-39036D02*
X60832Y-39083D01*
X60806Y-39107D01*
X60754Y-39131D01*
X60727Y-39131D01*
X60675Y-39107D01*
X60649Y-39083D01*
X60623Y-39036D01*
X60623Y-38940D01*
X60649Y-38893D01*
X60675Y-38869D01*
X60727Y-38845D01*
X60754Y-38845D01*
X60806Y-38869D01*
X60832Y-38893D01*
X60858Y-38940D01*
X60858Y-39036D01*
X60885Y-39083D01*
X60911Y-39107D01*
X60963Y-39131D01*
X61068Y-39131D01*
X61120Y-39107D01*
X61146Y-39083D01*
X61173Y-39036D01*
X61173Y-38940D01*
X61146Y-38893D01*
X61120Y-38869D01*
X61068Y-38845D01*
X60963Y-38845D01*
X60911Y-38869D01*
X60885Y-38893D01*
X60858Y-38940D01*
X60885Y-38631D02*
X60885Y-38464D01*
X61173Y-38393D02*
X61173Y-38631D01*
X60623Y-38631D01*
X60623Y-38393D01*
X59623Y-39369D02*
X59623Y-39464D01*
X59649Y-39512D01*
X59675Y-39535D01*
X59754Y-39583D01*
X59858Y-39607D01*
X60068Y-39607D01*
X60120Y-39583D01*
X60146Y-39559D01*
X60173Y-39512D01*
X60173Y-39416D01*
X60146Y-39369D01*
X60120Y-39345D01*
X60068Y-39321D01*
X59937Y-39321D01*
X59885Y-39345D01*
X59858Y-39369D01*
X59832Y-39416D01*
X59832Y-39512D01*
X59858Y-39559D01*
X59885Y-39583D01*
X59937Y-39607D01*
X59858Y-39036D02*
X59832Y-39083D01*
X59806Y-39107D01*
X59754Y-39131D01*
X59727Y-39131D01*
X59675Y-39107D01*
X59649Y-39083D01*
X59623Y-39036D01*
X59623Y-38940D01*
X59649Y-38893D01*
X59675Y-38869D01*
X59727Y-38845D01*
X59754Y-38845D01*
X59806Y-38869D01*
X59832Y-38893D01*
X59858Y-38940D01*
X59858Y-39036D01*
X59885Y-39083D01*
X59911Y-39107D01*
X59963Y-39131D01*
X60068Y-39131D01*
X60120Y-39107D01*
X60146Y-39083D01*
X60173Y-39036D01*
X60173Y-38940D01*
X60146Y-38893D01*
X60120Y-38869D01*
X60068Y-38845D01*
X59963Y-38845D01*
X59911Y-38869D01*
X59885Y-38893D01*
X59858Y-38940D01*
X59885Y-38631D02*
X59885Y-38464D01*
X60173Y-38393D02*
X60173Y-38631D01*
X59623Y-38631D01*
X59623Y-38393D01*
X65941Y-42773D02*
X65655Y-42773D01*
X65798Y-42773D02*
X65798Y-42223D01*
X65750Y-42301D01*
X65703Y-42354D01*
X65655Y-42380D01*
X66155Y-42773D02*
X66155Y-42223D01*
X66203Y-42563D02*
X66346Y-42773D01*
X66346Y-42406D02*
X66155Y-42615D01*
G54D11*
X56643Y-40200D02*
X57071Y-40200D01*
X57157Y-40228D01*
X57214Y-40285D01*
X57243Y-40371D01*
X57243Y-40428D01*
X57243Y-39600D02*
X57243Y-39943D01*
X57243Y-39771D02*
X56643Y-39771D01*
X56729Y-39828D01*
X56786Y-39886D01*
X56814Y-39943D01*
X48143Y-41271D02*
X48629Y-41271D01*
X48686Y-41243D01*
X48714Y-41214D01*
X48743Y-41157D01*
X48743Y-41043D01*
X48714Y-40985D01*
X48686Y-40957D01*
X48629Y-40928D01*
X48143Y-40928D01*
X48714Y-40671D02*
X48743Y-40585D01*
X48743Y-40442D01*
X48714Y-40385D01*
X48686Y-40356D01*
X48629Y-40328D01*
X48571Y-40328D01*
X48514Y-40356D01*
X48486Y-40385D01*
X48457Y-40442D01*
X48429Y-40556D01*
X48400Y-40614D01*
X48371Y-40642D01*
X48314Y-40671D01*
X48257Y-40671D01*
X48200Y-40642D01*
X48171Y-40614D01*
X48143Y-40556D01*
X48143Y-40414D01*
X48171Y-40328D01*
X48429Y-39871D02*
X48457Y-39785D01*
X48486Y-39757D01*
X48543Y-39728D01*
X48629Y-39728D01*
X48686Y-39757D01*
X48714Y-39785D01*
X48743Y-39843D01*
X48743Y-40071D01*
X48143Y-40071D01*
X48143Y-39871D01*
X48171Y-39814D01*
X48200Y-39785D01*
X48257Y-39757D01*
X48314Y-39757D01*
X48371Y-39785D01*
X48400Y-39814D01*
X48429Y-39871D01*
X48429Y-40071D01*
X48800Y-39614D02*
X48800Y-39157D01*
X48200Y-39043D02*
X48171Y-39014D01*
X48143Y-38957D01*
X48143Y-38814D01*
X48171Y-38757D01*
X48200Y-38728D01*
X48257Y-38700D01*
X48314Y-38700D01*
X48400Y-38728D01*
X48743Y-39071D01*
X48743Y-38700D01*
M02*
