G04 (created by PCBNEW-RS274X (2012-apr-16-27)-stable) date Thursday 03 April 2014 09:48:39 AM IST*
G01*
G70*
G90*
%MOIN*%
G04 Gerber Fmt 3.4, Leading zero omitted, Abs format*
%FSLAX34Y34*%
G04 APERTURE LIST*
%ADD10C,0.006000*%
%ADD11R,0.055000X0.055000*%
%ADD12C,0.055000*%
%ADD13C,0.066000*%
%ADD14C,0.059100*%
%ADD15R,0.098400X0.078700*%
%ADD16C,0.043400*%
%ADD17C,0.010000*%
G04 APERTURE END LIST*
G54D10*
G54D11*
X62500Y-38000D03*
G54D12*
X62500Y-39000D03*
X62500Y-40000D03*
X62500Y-41000D03*
G54D11*
X67500Y-41000D03*
G54D12*
X67500Y-40000D03*
X67500Y-39000D03*
X67500Y-38000D03*
G54D11*
X63500Y-38000D03*
G54D12*
X63500Y-39000D03*
X63500Y-40000D03*
X63500Y-41000D03*
X66500Y-41000D03*
X66500Y-40000D03*
X66500Y-39000D03*
X66500Y-38000D03*
G54D11*
X57500Y-42500D03*
G54D12*
X57500Y-41500D03*
G54D11*
X60000Y-41500D03*
G54D12*
X60000Y-42500D03*
G54D11*
X57000Y-37500D03*
G54D12*
X57000Y-40500D03*
G54D11*
X58000Y-37500D03*
G54D12*
X58000Y-40500D03*
G54D13*
X63500Y-42500D03*
X62500Y-42500D03*
G54D12*
X59000Y-40500D03*
X59000Y-37500D03*
X61000Y-37500D03*
X61000Y-40500D03*
X60000Y-37500D03*
X60000Y-40500D03*
X64500Y-42500D03*
X67500Y-42500D03*
G54D14*
X55450Y-39400D03*
X55450Y-40550D03*
X55450Y-41700D03*
X55450Y-38300D03*
G54D15*
X54300Y-42950D03*
X54300Y-37050D03*
G54D16*
X56650Y-40500D02*
X55450Y-41700D01*
X62500Y-42500D02*
X62500Y-41000D01*
X60000Y-42500D02*
X62500Y-42500D01*
X57500Y-41500D02*
X57500Y-41000D01*
X57500Y-41000D02*
X58000Y-40500D01*
X55450Y-41700D02*
X55450Y-41950D01*
X59000Y-43500D02*
X60000Y-42500D01*
X57000Y-43500D02*
X59000Y-43500D01*
X55450Y-41950D02*
X57000Y-43500D01*
X62500Y-41000D02*
X63500Y-41000D01*
X58000Y-40500D02*
X57000Y-40500D01*
X57000Y-40500D02*
X56650Y-40500D01*
X63500Y-42500D02*
X64500Y-42500D01*
X67500Y-39000D02*
X66500Y-39000D01*
X66500Y-40000D02*
X67500Y-40000D01*
X62500Y-38000D02*
X63500Y-38000D01*
X62500Y-40000D02*
X63500Y-40000D01*
X62500Y-40000D02*
X61500Y-40000D01*
X61500Y-40000D02*
X61000Y-40500D01*
X55825Y-40175D02*
X57875Y-38125D01*
X59000Y-37500D02*
X60000Y-37500D01*
X58000Y-37500D02*
X59000Y-37500D01*
X57875Y-38125D02*
X58000Y-37500D01*
X55450Y-40550D02*
X55825Y-40175D01*
X57000Y-37200D02*
X57350Y-36850D01*
X57000Y-37500D02*
X57000Y-37200D01*
X57000Y-38050D02*
X55650Y-39400D01*
X57350Y-36850D02*
X60350Y-36850D01*
X60350Y-36850D02*
X61000Y-37500D01*
X55650Y-39400D02*
X55450Y-39400D01*
X57000Y-37500D02*
X57000Y-38050D01*
X66500Y-38000D02*
X67500Y-38000D01*
X60000Y-41500D02*
X59000Y-40500D01*
X56200Y-36250D02*
X61700Y-36250D01*
X61700Y-36250D02*
X62500Y-37000D01*
X55450Y-38300D02*
X55450Y-37550D01*
X55450Y-37550D02*
X56200Y-36250D01*
X58000Y-42500D02*
X59000Y-41500D01*
X57500Y-42500D02*
X58000Y-42500D01*
X59000Y-41500D02*
X59000Y-40500D01*
X66000Y-37000D02*
X62500Y-37000D01*
X59000Y-40500D02*
X59000Y-39800D01*
X61700Y-38450D02*
X61700Y-37250D01*
X66500Y-37500D02*
X66000Y-37000D01*
X66500Y-38000D02*
X66500Y-37500D01*
X61700Y-37250D02*
X61950Y-37000D01*
X61950Y-37000D02*
X62500Y-37000D01*
X59000Y-39800D02*
X60350Y-38450D01*
X60350Y-38450D02*
X61700Y-38450D01*
X62500Y-39000D02*
X61000Y-39000D01*
X60000Y-40000D02*
X60000Y-40500D01*
X61000Y-39000D02*
X60000Y-40000D01*
X62500Y-39000D02*
X63500Y-39000D01*
X66500Y-41000D02*
X67500Y-41000D01*
X67500Y-42500D02*
X67500Y-41000D01*
G54D10*
G36*
X68175Y-43825D02*
X65025Y-43825D01*
X65025Y-42605D01*
X65025Y-42396D01*
X64945Y-42203D01*
X64798Y-42055D01*
X64605Y-41975D01*
X64396Y-41975D01*
X64256Y-42033D01*
X64019Y-42033D01*
X64019Y-41074D01*
X64008Y-40870D01*
X63952Y-40733D01*
X63861Y-40710D01*
X63571Y-41000D01*
X63861Y-41290D01*
X63952Y-41267D01*
X64019Y-41074D01*
X64019Y-42033D01*
X63853Y-42033D01*
X63829Y-42009D01*
X63790Y-41992D01*
X63790Y-41361D01*
X63500Y-41071D01*
X63429Y-41142D01*
X63429Y-41000D01*
X63139Y-40710D01*
X63048Y-40733D01*
X63003Y-40859D01*
X62952Y-40733D01*
X62861Y-40710D01*
X62571Y-41000D01*
X62861Y-41290D01*
X62952Y-41267D01*
X62996Y-41140D01*
X63048Y-41267D01*
X63139Y-41290D01*
X63429Y-41000D01*
X63429Y-41142D01*
X63210Y-41361D01*
X63233Y-41452D01*
X63426Y-41519D01*
X63630Y-41508D01*
X63767Y-41452D01*
X63790Y-41361D01*
X63790Y-41992D01*
X63616Y-41920D01*
X63385Y-41920D01*
X63172Y-42008D01*
X63009Y-42171D01*
X62996Y-42202D01*
X62900Y-42171D01*
X62829Y-42242D01*
X62829Y-42100D01*
X62798Y-42004D01*
X62790Y-42001D01*
X62790Y-41361D01*
X62500Y-41071D01*
X62429Y-41142D01*
X62429Y-41000D01*
X62139Y-40710D01*
X62048Y-40733D01*
X61981Y-40926D01*
X61992Y-41130D01*
X62048Y-41267D01*
X62139Y-41290D01*
X62429Y-41000D01*
X62429Y-41142D01*
X62210Y-41361D01*
X62233Y-41452D01*
X62426Y-41519D01*
X62630Y-41508D01*
X62767Y-41452D01*
X62790Y-41361D01*
X62790Y-42001D01*
X62586Y-41927D01*
X62361Y-41938D01*
X62202Y-42004D01*
X62171Y-42100D01*
X62500Y-42429D01*
X62829Y-42100D01*
X62829Y-42242D01*
X62571Y-42500D01*
X62900Y-42829D01*
X62995Y-42798D01*
X62996Y-42798D01*
X63008Y-42828D01*
X63171Y-42991D01*
X63384Y-43080D01*
X63615Y-43080D01*
X63828Y-42992D01*
X63853Y-42967D01*
X64255Y-42967D01*
X64395Y-43025D01*
X64604Y-43025D01*
X64797Y-42945D01*
X64945Y-42798D01*
X65025Y-42605D01*
X65025Y-43825D01*
X62829Y-43825D01*
X62829Y-42900D01*
X62500Y-42571D01*
X62429Y-42642D01*
X62429Y-42500D01*
X62100Y-42171D01*
X62004Y-42202D01*
X61927Y-42414D01*
X61938Y-42639D01*
X62004Y-42798D01*
X62100Y-42829D01*
X62429Y-42500D01*
X62429Y-42642D01*
X62171Y-42900D01*
X62202Y-42996D01*
X62414Y-43073D01*
X62639Y-43062D01*
X62798Y-42996D01*
X62829Y-42900D01*
X62829Y-43825D01*
X60519Y-43825D01*
X60519Y-42574D01*
X60508Y-42370D01*
X60452Y-42233D01*
X60361Y-42210D01*
X60071Y-42500D01*
X60361Y-42790D01*
X60452Y-42767D01*
X60519Y-42574D01*
X60519Y-43825D01*
X60290Y-43825D01*
X60290Y-42861D01*
X60000Y-42571D01*
X59929Y-42642D01*
X59929Y-42500D01*
X59639Y-42210D01*
X59548Y-42233D01*
X59481Y-42426D01*
X59492Y-42630D01*
X59548Y-42767D01*
X59639Y-42790D01*
X59929Y-42500D01*
X59929Y-42642D01*
X59710Y-42861D01*
X59733Y-42952D01*
X59926Y-43019D01*
X60130Y-43008D01*
X60267Y-42952D01*
X60290Y-42861D01*
X60290Y-43825D01*
X55990Y-43825D01*
X55990Y-41778D01*
X55978Y-41566D01*
X55918Y-41421D01*
X55825Y-41396D01*
X55754Y-41467D01*
X55754Y-41325D01*
X55729Y-41232D01*
X55528Y-41160D01*
X55316Y-41172D01*
X55171Y-41232D01*
X55146Y-41325D01*
X55450Y-41629D01*
X55754Y-41325D01*
X55754Y-41467D01*
X55521Y-41700D01*
X55825Y-42004D01*
X55918Y-41979D01*
X55990Y-41778D01*
X55990Y-43825D01*
X55754Y-43825D01*
X55754Y-42075D01*
X55450Y-41771D01*
X55379Y-41842D01*
X55379Y-41700D01*
X55075Y-41396D01*
X54982Y-41421D01*
X54910Y-41622D01*
X54922Y-41834D01*
X54982Y-41979D01*
X55075Y-42004D01*
X55379Y-41700D01*
X55379Y-41842D01*
X55146Y-42075D01*
X55171Y-42168D01*
X55372Y-42240D01*
X55584Y-42228D01*
X55729Y-42168D01*
X55754Y-42075D01*
X55754Y-43825D01*
X53675Y-43825D01*
X53675Y-43557D01*
X53758Y-43592D01*
X53857Y-43592D01*
X54841Y-43592D01*
X54933Y-43554D01*
X55003Y-43484D01*
X55041Y-43393D01*
X55041Y-43294D01*
X55041Y-42508D01*
X55003Y-42416D01*
X54933Y-42346D01*
X54842Y-42308D01*
X54743Y-42308D01*
X53759Y-42308D01*
X53675Y-42342D01*
X53675Y-37657D01*
X53758Y-37692D01*
X53857Y-37692D01*
X54841Y-37692D01*
X54933Y-37654D01*
X54983Y-37604D01*
X54983Y-38006D01*
X54906Y-38192D01*
X54906Y-38408D01*
X54989Y-38608D01*
X55142Y-38761D01*
X55342Y-38844D01*
X55546Y-38844D01*
X55534Y-38856D01*
X55342Y-38856D01*
X55142Y-38939D01*
X54989Y-39092D01*
X54906Y-39292D01*
X54906Y-39508D01*
X54989Y-39708D01*
X55142Y-39861D01*
X55342Y-39944D01*
X55396Y-39944D01*
X55328Y-40011D01*
X55142Y-40089D01*
X54989Y-40242D01*
X54906Y-40442D01*
X54906Y-40658D01*
X54989Y-40858D01*
X55142Y-41011D01*
X55342Y-41094D01*
X55558Y-41094D01*
X55758Y-41011D01*
X55911Y-40858D01*
X55988Y-40671D01*
X56155Y-40505D01*
X58205Y-38455D01*
X58229Y-38418D01*
X58263Y-38385D01*
X58282Y-38338D01*
X58306Y-38303D01*
X58314Y-38261D01*
X58333Y-38217D01*
X58375Y-38002D01*
X58416Y-37986D01*
X58435Y-37967D01*
X58755Y-37967D01*
X58895Y-38025D01*
X59104Y-38025D01*
X59243Y-37967D01*
X59755Y-37967D01*
X59895Y-38025D01*
X60104Y-38025D01*
X60297Y-37945D01*
X60445Y-37798D01*
X60500Y-37664D01*
X60555Y-37797D01*
X60702Y-37945D01*
X60793Y-37983D01*
X60350Y-37983D01*
X60171Y-38019D01*
X60020Y-38120D01*
X58670Y-39470D01*
X58569Y-39621D01*
X58533Y-39800D01*
X58533Y-40255D01*
X58496Y-40342D01*
X58452Y-40233D01*
X58361Y-40210D01*
X58290Y-40281D01*
X58290Y-40139D01*
X58267Y-40048D01*
X58074Y-39981D01*
X57870Y-39992D01*
X57733Y-40048D01*
X57710Y-40139D01*
X58000Y-40429D01*
X58290Y-40139D01*
X58290Y-40281D01*
X58071Y-40500D01*
X58361Y-40790D01*
X58452Y-40767D01*
X58493Y-40648D01*
X58533Y-40743D01*
X58533Y-41307D01*
X58290Y-41549D01*
X58290Y-40861D01*
X58000Y-40571D01*
X57929Y-40642D01*
X57929Y-40500D01*
X57639Y-40210D01*
X57548Y-40233D01*
X57503Y-40359D01*
X57452Y-40233D01*
X57361Y-40210D01*
X57290Y-40281D01*
X57290Y-40139D01*
X57267Y-40048D01*
X57074Y-39981D01*
X56870Y-39992D01*
X56733Y-40048D01*
X56710Y-40139D01*
X57000Y-40429D01*
X57290Y-40139D01*
X57290Y-40281D01*
X57071Y-40500D01*
X57361Y-40790D01*
X57452Y-40767D01*
X57496Y-40640D01*
X57548Y-40767D01*
X57639Y-40790D01*
X57929Y-40500D01*
X57929Y-40642D01*
X57710Y-40861D01*
X57733Y-40952D01*
X57926Y-41019D01*
X58130Y-41008D01*
X58267Y-40952D01*
X58290Y-40861D01*
X58290Y-41549D01*
X58019Y-41820D01*
X58019Y-41574D01*
X58008Y-41370D01*
X57952Y-41233D01*
X57861Y-41210D01*
X57790Y-41281D01*
X57790Y-41139D01*
X57767Y-41048D01*
X57574Y-40981D01*
X57370Y-40992D01*
X57290Y-41024D01*
X57290Y-40861D01*
X57000Y-40571D01*
X56929Y-40642D01*
X56929Y-40500D01*
X56639Y-40210D01*
X56548Y-40233D01*
X56481Y-40426D01*
X56492Y-40630D01*
X56548Y-40767D01*
X56639Y-40790D01*
X56929Y-40500D01*
X56929Y-40642D01*
X56710Y-40861D01*
X56733Y-40952D01*
X56926Y-41019D01*
X57130Y-41008D01*
X57267Y-40952D01*
X57290Y-40861D01*
X57290Y-41024D01*
X57233Y-41048D01*
X57210Y-41139D01*
X57500Y-41429D01*
X57790Y-41139D01*
X57790Y-41281D01*
X57571Y-41500D01*
X57861Y-41790D01*
X57952Y-41767D01*
X58019Y-41574D01*
X58019Y-41820D01*
X57852Y-41987D01*
X57825Y-41976D01*
X57726Y-41976D01*
X57708Y-41976D01*
X57767Y-41952D01*
X57790Y-41861D01*
X57500Y-41571D01*
X57429Y-41642D01*
X57429Y-41500D01*
X57139Y-41210D01*
X57048Y-41233D01*
X56981Y-41426D01*
X56992Y-41630D01*
X57048Y-41767D01*
X57139Y-41790D01*
X57429Y-41500D01*
X57429Y-41642D01*
X57210Y-41861D01*
X57233Y-41952D01*
X57302Y-41976D01*
X57176Y-41976D01*
X57084Y-42014D01*
X57014Y-42084D01*
X56976Y-42175D01*
X56976Y-42274D01*
X56976Y-42824D01*
X57014Y-42916D01*
X57084Y-42986D01*
X57175Y-43024D01*
X57274Y-43024D01*
X57824Y-43024D01*
X57916Y-42986D01*
X57935Y-42967D01*
X58000Y-42967D01*
X58178Y-42931D01*
X58179Y-42931D01*
X58330Y-42830D01*
X59330Y-41830D01*
X59431Y-41679D01*
X59431Y-41678D01*
X59445Y-41605D01*
X59476Y-41636D01*
X59476Y-41824D01*
X59514Y-41916D01*
X59584Y-41986D01*
X59675Y-42024D01*
X59774Y-42024D01*
X59791Y-42024D01*
X59733Y-42048D01*
X59710Y-42139D01*
X60000Y-42429D01*
X60290Y-42139D01*
X60267Y-42048D01*
X60197Y-42024D01*
X60324Y-42024D01*
X60416Y-41986D01*
X60486Y-41916D01*
X60524Y-41825D01*
X60524Y-41726D01*
X60524Y-41176D01*
X60486Y-41084D01*
X60416Y-41014D01*
X60325Y-40976D01*
X60226Y-40976D01*
X60222Y-40976D01*
X60297Y-40945D01*
X60445Y-40798D01*
X60500Y-40664D01*
X60555Y-40797D01*
X60702Y-40945D01*
X60895Y-41025D01*
X61104Y-41025D01*
X61297Y-40945D01*
X61445Y-40798D01*
X61503Y-40656D01*
X61693Y-40467D01*
X62255Y-40467D01*
X62342Y-40503D01*
X62233Y-40548D01*
X62210Y-40639D01*
X62500Y-40929D01*
X62790Y-40639D01*
X62767Y-40548D01*
X62648Y-40506D01*
X62743Y-40467D01*
X63255Y-40467D01*
X63342Y-40503D01*
X63233Y-40548D01*
X63210Y-40639D01*
X63500Y-40929D01*
X63790Y-40639D01*
X63767Y-40548D01*
X63648Y-40506D01*
X63797Y-40445D01*
X63945Y-40298D01*
X64025Y-40105D01*
X64025Y-39896D01*
X63945Y-39703D01*
X63798Y-39555D01*
X63664Y-39499D01*
X63797Y-39445D01*
X63945Y-39298D01*
X64025Y-39105D01*
X64025Y-38896D01*
X63945Y-38703D01*
X63798Y-38555D01*
X63723Y-38524D01*
X63824Y-38524D01*
X63916Y-38486D01*
X63986Y-38416D01*
X64024Y-38325D01*
X64024Y-38226D01*
X64024Y-37676D01*
X63986Y-37584D01*
X63916Y-37514D01*
X63825Y-37476D01*
X63726Y-37476D01*
X63176Y-37476D01*
X63084Y-37514D01*
X63065Y-37533D01*
X62935Y-37533D01*
X62916Y-37514D01*
X62825Y-37476D01*
X62726Y-37476D01*
X62176Y-37476D01*
X62167Y-37479D01*
X62167Y-37467D01*
X62500Y-37467D01*
X62514Y-37467D01*
X65807Y-37467D01*
X66033Y-37693D01*
X66033Y-37755D01*
X65975Y-37895D01*
X65975Y-38104D01*
X66055Y-38297D01*
X66202Y-38445D01*
X66335Y-38500D01*
X66203Y-38555D01*
X66055Y-38702D01*
X65975Y-38895D01*
X65975Y-39104D01*
X66055Y-39297D01*
X66202Y-39445D01*
X66335Y-39500D01*
X66203Y-39555D01*
X66055Y-39702D01*
X65975Y-39895D01*
X65975Y-40104D01*
X66055Y-40297D01*
X66202Y-40445D01*
X66335Y-40500D01*
X66203Y-40555D01*
X66055Y-40702D01*
X65975Y-40895D01*
X65975Y-41104D01*
X66055Y-41297D01*
X66202Y-41445D01*
X66395Y-41525D01*
X66604Y-41525D01*
X66743Y-41467D01*
X67033Y-41467D01*
X67033Y-42255D01*
X66975Y-42395D01*
X66975Y-42604D01*
X67055Y-42797D01*
X67202Y-42945D01*
X67395Y-43025D01*
X67604Y-43025D01*
X67797Y-42945D01*
X67945Y-42798D01*
X68025Y-42605D01*
X68025Y-42396D01*
X67967Y-42256D01*
X67967Y-41435D01*
X67986Y-41416D01*
X68024Y-41325D01*
X68024Y-41226D01*
X68024Y-40676D01*
X67986Y-40584D01*
X67916Y-40514D01*
X67825Y-40476D01*
X67726Y-40476D01*
X67722Y-40476D01*
X67797Y-40445D01*
X67945Y-40298D01*
X68025Y-40105D01*
X68025Y-39896D01*
X67945Y-39703D01*
X67798Y-39555D01*
X67664Y-39499D01*
X67797Y-39445D01*
X67945Y-39298D01*
X68025Y-39105D01*
X68025Y-38896D01*
X67945Y-38703D01*
X67798Y-38555D01*
X67664Y-38499D01*
X67797Y-38445D01*
X67945Y-38298D01*
X68025Y-38105D01*
X68025Y-37896D01*
X67945Y-37703D01*
X67798Y-37555D01*
X67605Y-37475D01*
X67396Y-37475D01*
X67256Y-37533D01*
X66967Y-37533D01*
X66967Y-37500D01*
X66931Y-37322D01*
X66931Y-37321D01*
X66830Y-37170D01*
X66330Y-36670D01*
X66179Y-36569D01*
X66000Y-36533D01*
X62683Y-36533D01*
X62195Y-36075D01*
X68175Y-36075D01*
X68175Y-43825D01*
X68175Y-43825D01*
G37*
G54D17*
X68175Y-43825D02*
X65025Y-43825D01*
X65025Y-42605D01*
X65025Y-42396D01*
X64945Y-42203D01*
X64798Y-42055D01*
X64605Y-41975D01*
X64396Y-41975D01*
X64256Y-42033D01*
X64019Y-42033D01*
X64019Y-41074D01*
X64008Y-40870D01*
X63952Y-40733D01*
X63861Y-40710D01*
X63571Y-41000D01*
X63861Y-41290D01*
X63952Y-41267D01*
X64019Y-41074D01*
X64019Y-42033D01*
X63853Y-42033D01*
X63829Y-42009D01*
X63790Y-41992D01*
X63790Y-41361D01*
X63500Y-41071D01*
X63429Y-41142D01*
X63429Y-41000D01*
X63139Y-40710D01*
X63048Y-40733D01*
X63003Y-40859D01*
X62952Y-40733D01*
X62861Y-40710D01*
X62571Y-41000D01*
X62861Y-41290D01*
X62952Y-41267D01*
X62996Y-41140D01*
X63048Y-41267D01*
X63139Y-41290D01*
X63429Y-41000D01*
X63429Y-41142D01*
X63210Y-41361D01*
X63233Y-41452D01*
X63426Y-41519D01*
X63630Y-41508D01*
X63767Y-41452D01*
X63790Y-41361D01*
X63790Y-41992D01*
X63616Y-41920D01*
X63385Y-41920D01*
X63172Y-42008D01*
X63009Y-42171D01*
X62996Y-42202D01*
X62900Y-42171D01*
X62829Y-42242D01*
X62829Y-42100D01*
X62798Y-42004D01*
X62790Y-42001D01*
X62790Y-41361D01*
X62500Y-41071D01*
X62429Y-41142D01*
X62429Y-41000D01*
X62139Y-40710D01*
X62048Y-40733D01*
X61981Y-40926D01*
X61992Y-41130D01*
X62048Y-41267D01*
X62139Y-41290D01*
X62429Y-41000D01*
X62429Y-41142D01*
X62210Y-41361D01*
X62233Y-41452D01*
X62426Y-41519D01*
X62630Y-41508D01*
X62767Y-41452D01*
X62790Y-41361D01*
X62790Y-42001D01*
X62586Y-41927D01*
X62361Y-41938D01*
X62202Y-42004D01*
X62171Y-42100D01*
X62500Y-42429D01*
X62829Y-42100D01*
X62829Y-42242D01*
X62571Y-42500D01*
X62900Y-42829D01*
X62995Y-42798D01*
X62996Y-42798D01*
X63008Y-42828D01*
X63171Y-42991D01*
X63384Y-43080D01*
X63615Y-43080D01*
X63828Y-42992D01*
X63853Y-42967D01*
X64255Y-42967D01*
X64395Y-43025D01*
X64604Y-43025D01*
X64797Y-42945D01*
X64945Y-42798D01*
X65025Y-42605D01*
X65025Y-43825D01*
X62829Y-43825D01*
X62829Y-42900D01*
X62500Y-42571D01*
X62429Y-42642D01*
X62429Y-42500D01*
X62100Y-42171D01*
X62004Y-42202D01*
X61927Y-42414D01*
X61938Y-42639D01*
X62004Y-42798D01*
X62100Y-42829D01*
X62429Y-42500D01*
X62429Y-42642D01*
X62171Y-42900D01*
X62202Y-42996D01*
X62414Y-43073D01*
X62639Y-43062D01*
X62798Y-42996D01*
X62829Y-42900D01*
X62829Y-43825D01*
X60519Y-43825D01*
X60519Y-42574D01*
X60508Y-42370D01*
X60452Y-42233D01*
X60361Y-42210D01*
X60071Y-42500D01*
X60361Y-42790D01*
X60452Y-42767D01*
X60519Y-42574D01*
X60519Y-43825D01*
X60290Y-43825D01*
X60290Y-42861D01*
X60000Y-42571D01*
X59929Y-42642D01*
X59929Y-42500D01*
X59639Y-42210D01*
X59548Y-42233D01*
X59481Y-42426D01*
X59492Y-42630D01*
X59548Y-42767D01*
X59639Y-42790D01*
X59929Y-42500D01*
X59929Y-42642D01*
X59710Y-42861D01*
X59733Y-42952D01*
X59926Y-43019D01*
X60130Y-43008D01*
X60267Y-42952D01*
X60290Y-42861D01*
X60290Y-43825D01*
X55990Y-43825D01*
X55990Y-41778D01*
X55978Y-41566D01*
X55918Y-41421D01*
X55825Y-41396D01*
X55754Y-41467D01*
X55754Y-41325D01*
X55729Y-41232D01*
X55528Y-41160D01*
X55316Y-41172D01*
X55171Y-41232D01*
X55146Y-41325D01*
X55450Y-41629D01*
X55754Y-41325D01*
X55754Y-41467D01*
X55521Y-41700D01*
X55825Y-42004D01*
X55918Y-41979D01*
X55990Y-41778D01*
X55990Y-43825D01*
X55754Y-43825D01*
X55754Y-42075D01*
X55450Y-41771D01*
X55379Y-41842D01*
X55379Y-41700D01*
X55075Y-41396D01*
X54982Y-41421D01*
X54910Y-41622D01*
X54922Y-41834D01*
X54982Y-41979D01*
X55075Y-42004D01*
X55379Y-41700D01*
X55379Y-41842D01*
X55146Y-42075D01*
X55171Y-42168D01*
X55372Y-42240D01*
X55584Y-42228D01*
X55729Y-42168D01*
X55754Y-42075D01*
X55754Y-43825D01*
X53675Y-43825D01*
X53675Y-43557D01*
X53758Y-43592D01*
X53857Y-43592D01*
X54841Y-43592D01*
X54933Y-43554D01*
X55003Y-43484D01*
X55041Y-43393D01*
X55041Y-43294D01*
X55041Y-42508D01*
X55003Y-42416D01*
X54933Y-42346D01*
X54842Y-42308D01*
X54743Y-42308D01*
X53759Y-42308D01*
X53675Y-42342D01*
X53675Y-37657D01*
X53758Y-37692D01*
X53857Y-37692D01*
X54841Y-37692D01*
X54933Y-37654D01*
X54983Y-37604D01*
X54983Y-38006D01*
X54906Y-38192D01*
X54906Y-38408D01*
X54989Y-38608D01*
X55142Y-38761D01*
X55342Y-38844D01*
X55546Y-38844D01*
X55534Y-38856D01*
X55342Y-38856D01*
X55142Y-38939D01*
X54989Y-39092D01*
X54906Y-39292D01*
X54906Y-39508D01*
X54989Y-39708D01*
X55142Y-39861D01*
X55342Y-39944D01*
X55396Y-39944D01*
X55328Y-40011D01*
X55142Y-40089D01*
X54989Y-40242D01*
X54906Y-40442D01*
X54906Y-40658D01*
X54989Y-40858D01*
X55142Y-41011D01*
X55342Y-41094D01*
X55558Y-41094D01*
X55758Y-41011D01*
X55911Y-40858D01*
X55988Y-40671D01*
X56155Y-40505D01*
X58205Y-38455D01*
X58229Y-38418D01*
X58263Y-38385D01*
X58282Y-38338D01*
X58306Y-38303D01*
X58314Y-38261D01*
X58333Y-38217D01*
X58375Y-38002D01*
X58416Y-37986D01*
X58435Y-37967D01*
X58755Y-37967D01*
X58895Y-38025D01*
X59104Y-38025D01*
X59243Y-37967D01*
X59755Y-37967D01*
X59895Y-38025D01*
X60104Y-38025D01*
X60297Y-37945D01*
X60445Y-37798D01*
X60500Y-37664D01*
X60555Y-37797D01*
X60702Y-37945D01*
X60793Y-37983D01*
X60350Y-37983D01*
X60171Y-38019D01*
X60020Y-38120D01*
X58670Y-39470D01*
X58569Y-39621D01*
X58533Y-39800D01*
X58533Y-40255D01*
X58496Y-40342D01*
X58452Y-40233D01*
X58361Y-40210D01*
X58290Y-40281D01*
X58290Y-40139D01*
X58267Y-40048D01*
X58074Y-39981D01*
X57870Y-39992D01*
X57733Y-40048D01*
X57710Y-40139D01*
X58000Y-40429D01*
X58290Y-40139D01*
X58290Y-40281D01*
X58071Y-40500D01*
X58361Y-40790D01*
X58452Y-40767D01*
X58493Y-40648D01*
X58533Y-40743D01*
X58533Y-41307D01*
X58290Y-41549D01*
X58290Y-40861D01*
X58000Y-40571D01*
X57929Y-40642D01*
X57929Y-40500D01*
X57639Y-40210D01*
X57548Y-40233D01*
X57503Y-40359D01*
X57452Y-40233D01*
X57361Y-40210D01*
X57290Y-40281D01*
X57290Y-40139D01*
X57267Y-40048D01*
X57074Y-39981D01*
X56870Y-39992D01*
X56733Y-40048D01*
X56710Y-40139D01*
X57000Y-40429D01*
X57290Y-40139D01*
X57290Y-40281D01*
X57071Y-40500D01*
X57361Y-40790D01*
X57452Y-40767D01*
X57496Y-40640D01*
X57548Y-40767D01*
X57639Y-40790D01*
X57929Y-40500D01*
X57929Y-40642D01*
X57710Y-40861D01*
X57733Y-40952D01*
X57926Y-41019D01*
X58130Y-41008D01*
X58267Y-40952D01*
X58290Y-40861D01*
X58290Y-41549D01*
X58019Y-41820D01*
X58019Y-41574D01*
X58008Y-41370D01*
X57952Y-41233D01*
X57861Y-41210D01*
X57790Y-41281D01*
X57790Y-41139D01*
X57767Y-41048D01*
X57574Y-40981D01*
X57370Y-40992D01*
X57290Y-41024D01*
X57290Y-40861D01*
X57000Y-40571D01*
X56929Y-40642D01*
X56929Y-40500D01*
X56639Y-40210D01*
X56548Y-40233D01*
X56481Y-40426D01*
X56492Y-40630D01*
X56548Y-40767D01*
X56639Y-40790D01*
X56929Y-40500D01*
X56929Y-40642D01*
X56710Y-40861D01*
X56733Y-40952D01*
X56926Y-41019D01*
X57130Y-41008D01*
X57267Y-40952D01*
X57290Y-40861D01*
X57290Y-41024D01*
X57233Y-41048D01*
X57210Y-41139D01*
X57500Y-41429D01*
X57790Y-41139D01*
X57790Y-41281D01*
X57571Y-41500D01*
X57861Y-41790D01*
X57952Y-41767D01*
X58019Y-41574D01*
X58019Y-41820D01*
X57852Y-41987D01*
X57825Y-41976D01*
X57726Y-41976D01*
X57708Y-41976D01*
X57767Y-41952D01*
X57790Y-41861D01*
X57500Y-41571D01*
X57429Y-41642D01*
X57429Y-41500D01*
X57139Y-41210D01*
X57048Y-41233D01*
X56981Y-41426D01*
X56992Y-41630D01*
X57048Y-41767D01*
X57139Y-41790D01*
X57429Y-41500D01*
X57429Y-41642D01*
X57210Y-41861D01*
X57233Y-41952D01*
X57302Y-41976D01*
X57176Y-41976D01*
X57084Y-42014D01*
X57014Y-42084D01*
X56976Y-42175D01*
X56976Y-42274D01*
X56976Y-42824D01*
X57014Y-42916D01*
X57084Y-42986D01*
X57175Y-43024D01*
X57274Y-43024D01*
X57824Y-43024D01*
X57916Y-42986D01*
X57935Y-42967D01*
X58000Y-42967D01*
X58178Y-42931D01*
X58179Y-42931D01*
X58330Y-42830D01*
X59330Y-41830D01*
X59431Y-41679D01*
X59431Y-41678D01*
X59445Y-41605D01*
X59476Y-41636D01*
X59476Y-41824D01*
X59514Y-41916D01*
X59584Y-41986D01*
X59675Y-42024D01*
X59774Y-42024D01*
X59791Y-42024D01*
X59733Y-42048D01*
X59710Y-42139D01*
X60000Y-42429D01*
X60290Y-42139D01*
X60267Y-42048D01*
X60197Y-42024D01*
X60324Y-42024D01*
X60416Y-41986D01*
X60486Y-41916D01*
X60524Y-41825D01*
X60524Y-41726D01*
X60524Y-41176D01*
X60486Y-41084D01*
X60416Y-41014D01*
X60325Y-40976D01*
X60226Y-40976D01*
X60222Y-40976D01*
X60297Y-40945D01*
X60445Y-40798D01*
X60500Y-40664D01*
X60555Y-40797D01*
X60702Y-40945D01*
X60895Y-41025D01*
X61104Y-41025D01*
X61297Y-40945D01*
X61445Y-40798D01*
X61503Y-40656D01*
X61693Y-40467D01*
X62255Y-40467D01*
X62342Y-40503D01*
X62233Y-40548D01*
X62210Y-40639D01*
X62500Y-40929D01*
X62790Y-40639D01*
X62767Y-40548D01*
X62648Y-40506D01*
X62743Y-40467D01*
X63255Y-40467D01*
X63342Y-40503D01*
X63233Y-40548D01*
X63210Y-40639D01*
X63500Y-40929D01*
X63790Y-40639D01*
X63767Y-40548D01*
X63648Y-40506D01*
X63797Y-40445D01*
X63945Y-40298D01*
X64025Y-40105D01*
X64025Y-39896D01*
X63945Y-39703D01*
X63798Y-39555D01*
X63664Y-39499D01*
X63797Y-39445D01*
X63945Y-39298D01*
X64025Y-39105D01*
X64025Y-38896D01*
X63945Y-38703D01*
X63798Y-38555D01*
X63723Y-38524D01*
X63824Y-38524D01*
X63916Y-38486D01*
X63986Y-38416D01*
X64024Y-38325D01*
X64024Y-38226D01*
X64024Y-37676D01*
X63986Y-37584D01*
X63916Y-37514D01*
X63825Y-37476D01*
X63726Y-37476D01*
X63176Y-37476D01*
X63084Y-37514D01*
X63065Y-37533D01*
X62935Y-37533D01*
X62916Y-37514D01*
X62825Y-37476D01*
X62726Y-37476D01*
X62176Y-37476D01*
X62167Y-37479D01*
X62167Y-37467D01*
X62500Y-37467D01*
X62514Y-37467D01*
X65807Y-37467D01*
X66033Y-37693D01*
X66033Y-37755D01*
X65975Y-37895D01*
X65975Y-38104D01*
X66055Y-38297D01*
X66202Y-38445D01*
X66335Y-38500D01*
X66203Y-38555D01*
X66055Y-38702D01*
X65975Y-38895D01*
X65975Y-39104D01*
X66055Y-39297D01*
X66202Y-39445D01*
X66335Y-39500D01*
X66203Y-39555D01*
X66055Y-39702D01*
X65975Y-39895D01*
X65975Y-40104D01*
X66055Y-40297D01*
X66202Y-40445D01*
X66335Y-40500D01*
X66203Y-40555D01*
X66055Y-40702D01*
X65975Y-40895D01*
X65975Y-41104D01*
X66055Y-41297D01*
X66202Y-41445D01*
X66395Y-41525D01*
X66604Y-41525D01*
X66743Y-41467D01*
X67033Y-41467D01*
X67033Y-42255D01*
X66975Y-42395D01*
X66975Y-42604D01*
X67055Y-42797D01*
X67202Y-42945D01*
X67395Y-43025D01*
X67604Y-43025D01*
X67797Y-42945D01*
X67945Y-42798D01*
X68025Y-42605D01*
X68025Y-42396D01*
X67967Y-42256D01*
X67967Y-41435D01*
X67986Y-41416D01*
X68024Y-41325D01*
X68024Y-41226D01*
X68024Y-40676D01*
X67986Y-40584D01*
X67916Y-40514D01*
X67825Y-40476D01*
X67726Y-40476D01*
X67722Y-40476D01*
X67797Y-40445D01*
X67945Y-40298D01*
X68025Y-40105D01*
X68025Y-39896D01*
X67945Y-39703D01*
X67798Y-39555D01*
X67664Y-39499D01*
X67797Y-39445D01*
X67945Y-39298D01*
X68025Y-39105D01*
X68025Y-38896D01*
X67945Y-38703D01*
X67798Y-38555D01*
X67664Y-38499D01*
X67797Y-38445D01*
X67945Y-38298D01*
X68025Y-38105D01*
X68025Y-37896D01*
X67945Y-37703D01*
X67798Y-37555D01*
X67605Y-37475D01*
X67396Y-37475D01*
X67256Y-37533D01*
X66967Y-37533D01*
X66967Y-37500D01*
X66931Y-37322D01*
X66931Y-37321D01*
X66830Y-37170D01*
X66330Y-36670D01*
X66179Y-36569D01*
X66000Y-36533D01*
X62683Y-36533D01*
X62195Y-36075D01*
X68175Y-36075D01*
X68175Y-43825D01*
M02*
